<svg width="3023" height="1451" viewBox="0 0 3023 1451" fill="none" xmlns="http://www.w3.org/2000/svg">
<g id="Recurso 1 1" clip-path="url(#clip0_6_3)">
<g id="Capa 2">
<g id="&#208;&#161;&#208;&#187;&#208;&#190;&#208;&#185; 2" filter="url(#filter0_d_6_3)">
<path id="Vector" d="M2966.66 1264.52C2920.95 1368.4 2831.98 1414.25 2746.92 1433.06H248.353C12.493 1344.94 -113.017 704.149 236.743 548.269C428.403 462.839 560.423 447.999 597.743 313.399C754.443 -252.751 1316.32 100.329 1524.27 40.8986C2263.84 -170.491 2152.87 865.249 2613.7 771.359C2825.14 728.279 3100.89 959.529 2966.66 1264.52Z" fill="#EBF2F9"/>
<path id="Vector_2" d="M1715.89 953.459C1715.89 953.459 1633.74 1014.55 1617.72 1010.85C1601.7 1007.15 1677.72 944.899 1677.72 944.899C1649.1 931.139 1560.13 939.769 1560.13 939.769C1560.13 939.769 1530.49 1035.34 1515.88 1027.77C1501.27 1020.2 1546.43 944.488 1546.43 944.488C1514.56 942.568 1475.43 966.238 1475.43 966.238C1421.9 1008.51 1478.94 1075.06 1478.94 1075.06C1478.94 1075.06 1467.94 1107.96 1434.16 1137.91C1434.16 1137.91 1385.88 1173.62 1382.53 1237.41L1391.29 1238.19C1391.29 1238.19 1405.18 1178.77 1430.42 1150.67C1431.42 1149.67 1432.82 1148.21 1434.57 1146.44C1438.69 1142.62 1441.57 1139.75 1443.52 1137.62C1456.08 1125.55 1473.44 1110.18 1481.8 1108.69C1481.5 1107.31 1481.38 1105.9 1481.44 1104.49C1481.55 1105.83 1481.67 1107.22 1481.8 1108.69C1484.66 1142.33 1549.92 1171.69 1590.06 1177.69C1630.2 1183.69 1617.8 1167.23 1603.96 1142.77C1590.12 1118.31 1546.36 1107.35 1536.37 1096.08C1526.38 1084.81 1547.03 1084.79 1571.22 1095.84C1595.41 1106.89 1598.72 1136.34 1637.52 1154.92C1676.32 1173.5 1734.7 1109.12 1734.7 1109.12C1703.78 1107.55 1659.62 1073.96 1661.22 1063.69C1662.82 1053.42 1736.22 1081.42 1748.72 1082.76C1761.22 1084.1 1789.79 1068.5 1794.21 1017.99C1798.63 967.478 1715.89 953.459 1715.89 953.459Z" fill="#82B378"/>
<path id="Vector_3" d="M1279.57 991.389C1279.57 991.389 1370.31 940.579 1327.96 871.609C1327.96 871.609 1294.09 829.269 1257.79 818.379C1257.79 818.379 1277.15 921.219 1257.79 923.639C1238.43 926.059 1244.48 807.489 1244.48 807.489C1244.48 807.489 1148.9 761.489 1111.39 765.139C1111.39 765.139 1170.68 865.559 1151.32 863.139C1131.96 860.719 1065.42 759.139 1065.42 759.139C1065.42 759.139 967.423 740.939 951.743 798.999C936.063 857.059 961.423 886.109 975.933 889.739C990.443 893.369 1083.62 892.159 1081.2 904.259C1078.78 916.359 1015.86 935.719 980.773 924.829C980.773 924.829 1019.49 1020.41 1070.31 1015.57C1121.13 1010.73 1136.85 979.269 1168.31 976.849C1199.77 974.429 1222.75 982.849 1207.02 991.369C1191.29 999.889 1138.02 994.149 1112.65 1015.75C1087.28 1037.35 1066.65 1050.66 1113.86 1060.34C1161.07 1070.02 1245.74 1063.97 1262.68 1027.67L1279.57 991.389Z" fill="#A8D29F"/>
<path id="Vector_4" d="M1303.74 1079.72C1278.33 1032.53 1279.54 991.388 1279.54 991.388C1250.54 899.438 996.423 817.168 996.423 817.168C1319.42 947.838 1262.6 1027.69 1262.6 1027.69C1271.31 1032.77 1284.36 1056.98 1293.42 1075.56C1294.71 1078.72 1296.75 1083.1 1299.79 1089.04C1301.02 1091.73 1302 1093.92 1302.68 1095.46C1319.31 1137.07 1310.5 1208.94 1310.5 1208.94L1320.58 1211.65C1342.95 1139.22 1303.74 1079.72 1303.74 1079.72Z" fill="#82B378"/>
<path id="Vector_5" d="M1423.93 921.309C1423.93 921.309 1304.32 854.308 1360.14 763.418C1360.14 763.418 1404.79 707.598 1452.64 693.248C1452.64 693.248 1427.12 828.808 1452.64 831.998C1478.16 835.188 1470.18 678.889 1470.18 678.889C1470.18 678.889 1596.18 618.288 1645.62 623.068C1645.62 623.068 1567.47 755.449 1592.99 752.258C1618.51 749.068 1706.22 615.098 1706.22 615.098C1706.22 615.098 1835.41 591.168 1856.14 667.728C1876.87 744.288 1843.38 782.559 1824.24 787.339C1805.1 792.119 1682.3 790.528 1685.49 806.478C1688.68 822.428 1771.61 847.949 1817.87 833.589C1817.87 833.589 1766.87 959.589 1699.87 953.209C1632.87 946.829 1612.15 905.359 1570.68 902.209C1529.21 899.059 1498.91 910.208 1519.68 921.348C1540.45 932.488 1610.59 925.008 1644.08 953.478C1677.57 981.948 1704.69 999.479 1642.49 1012.26C1580.29 1025.04 1468.65 1017.04 1446.32 969.199L1423.93 921.309Z" fill="#A8D29F"/>
<path id="Vector_6" d="M1797.13 691.648C1797.13 691.648 1462.21 800.098 1423.93 921.308C1423.93 921.308 1425.53 975.538 1392.03 1037.74C1392.03 1037.74 1340.38 1116.17 1369.83 1211.65L1383.12 1208.08C1383.12 1208.08 1371.5 1113.35 1393.43 1058.49C1394.32 1056.49 1395.62 1053.57 1397.24 1050.03C1401.24 1042.2 1403.94 1036.43 1405.64 1032.26C1417.58 1007.77 1434.78 975.848 1446.26 969.158C1446.26 969.158 1371.3 863.898 1797.13 691.648Z" fill="#82B378"/>
<path id="Vector_7" d="M1224.53 909.999C1224.53 909.999 1422.53 853.449 1472.22 907.249C1515.78 954.379 1633.91 1140.93 1640.13 1251.35C1646.13 1358.64 1532.61 1429.18 1415.79 1429.18H1208.3L1224.53 909.999Z" fill="#F1A34F"/>
<path id="Vector_8" d="M1087.51 964.999C1087.51 964.999 1367.41 837.849 1420.43 920.909C1448.58 965.009 1526.04 1140.91 1531.76 1251.37C1537.31 1358.66 1432.88 1429.2 1325.45 1429.2H1134.64L1087.51 964.999Z" fill="#D16E24"/>
<path id="Vector_9" d="M535.643 573.858C535.643 573.858 883.793 564.428 1016.69 564.728C1085.06 564.878 1083.37 616.628 1116.22 676.588C1182 796.688 1291.22 1003.26 1282.55 1035.54C1270.18 1081.54 804.133 1113.3 771.143 1102.7C738.153 1092.1 535.643 573.858 535.643 573.858Z" fill="#E78B37"/>
<path id="Vector_10" opacity="0.4" d="M808.253 666.928C808.253 666.928 812.963 598.598 796.463 604.488C779.963 610.378 675.113 705.808 691.613 930.848L739.913 972.078L1108.68 910.818L808.253 666.928Z" fill="#C44F00"/>
<path id="Vector_11" d="M1277.03 943.889L1152.83 1005.25C1152.83 1005.25 1046.39 613.909 1039.32 584.069C1036.18 570.769 1026.47 565.959 1016.69 564.729C1033.9 563.159 1046.43 563.039 1046.43 563.039C1062.96 563.038 1079.06 568.214 1092.49 577.841C1105.92 587.467 1116 601.06 1121.3 616.709C1145.02 686.709 1188.69 815.709 1232.93 947.139C1244.5 942.509 1258.28 937.189 1273.48 931.729L1277.03 943.889Z" fill="#F1A34F"/>
<path id="Vector_12" d="M1028.43 965.079C1028.43 965.079 1429.83 929.539 1479.31 976.929C1502.31 998.929 1515.19 1098.58 1522.42 1199.02C1531.42 1324.31 1429.9 1431.53 1304.99 1429.73L869.853 1429.93L1028.43 965.079Z" fill="#DF812F"/>
<path id="Vector_13" d="M878.193 480.789C866.703 478.209 854.773 481.189 846.713 484.179C848.163 481.349 852.083 479.289 852.083 479.289C846.753 480.079 836.933 488.599 836.933 488.599C757.783 482.939 778.493 590.599 787.383 614.389C796.273 638.179 804.953 665.989 776.233 698.509C719.733 762.509 801.233 819.209 801.233 819.209C801.873 819.369 850.173 863.609 850.173 863.609C842.403 844.609 901.173 713.689 938.863 668.359C945.173 647.969 940.143 616.889 939.733 614.439C944.973 638.709 944.983 653.209 943.643 661.789C972.313 612.869 908.663 487.609 878.193 480.789Z" fill="#B5453C"/>
<path id="Vector_14" d="M1462.1 1346.71C1460.95 1359.21 1478.35 1362.25 1498.51 1363.25C1518.67 1364.25 1512.57 1368.38 1540.19 1373.39C1567.81 1378.4 1578.88 1370.83 1580.87 1367.1C1582.65 1363.79 1569.81 1358.61 1556.13 1352.76C1554.41 1352.03 1552.68 1351.27 1550.96 1350.52C1535.56 1343.75 1526.96 1329.94 1514.96 1317.13C1503.58 1305 1492.78 1266.13 1492.78 1266.13L1455.25 1258.13C1455.25 1258.13 1465.79 1293.08 1469.45 1308C1471.6 1316.78 1468.45 1326.59 1465.61 1334.06C1464.04 1338.15 1462.51 1342.31 1462.1 1346.71Z" fill="#FFB27D"/>
<path id="Vector_15" d="M1498.51 1363.25C1518.66 1364.25 1512.57 1368.38 1540.19 1373.39C1567.81 1378.4 1578.88 1370.83 1580.87 1367.1C1582.65 1363.79 1569.81 1358.61 1556.13 1352.76L1555.92 1352.99C1542.28 1356.93 1527.82 1357.1 1514.08 1353.49C1495.81 1348.49 1478.14 1337.61 1465.56 1334.08C1464.04 1338.15 1462.56 1342.31 1462.1 1346.71C1460.95 1359.21 1478.35 1362.25 1498.51 1363.25Z" fill="#C65447"/>
<path id="Vector_16" d="M1088.36 901.639C1088.36 901.639 1337.74 882.869 1384.74 912.509C1431.74 942.149 1507 1287.3 1507 1287.3C1507 1287.3 1502.35 1291.02 1492 1292.15C1482.35 1293.15 1461.09 1287.52 1461.09 1287.52C1461.09 1287.52 1352.86 1133.08 1345.24 1094.17C1337.62 1055.26 1339.48 1020.55 1322.12 1019.62C1304.76 1018.69 1088.38 1045.93 1055.65 988.269C1022.92 930.609 1049.98 873.529 1049.98 873.529L1088.36 901.639Z" fill="#AA413E"/>
<path id="Vector_17" d="M1366.67 1386.77C1365.52 1399.27 1382.92 1402.31 1403.07 1403.31C1423.22 1404.31 1417.14 1408.44 1444.76 1413.44C1472.38 1418.44 1483.44 1410.89 1485.44 1407.16C1487.22 1403.85 1474.38 1398.67 1460.7 1392.82C1458.97 1392.09 1457.25 1391.33 1455.53 1390.58C1440.12 1383.81 1431.53 1369.99 1419.47 1357.19C1408.1 1345.06 1397.3 1306.19 1397.3 1306.19L1359.77 1298.19C1359.77 1298.19 1370.31 1333.19 1373.97 1348.07C1376.12 1356.85 1372.97 1366.66 1370.12 1374.13C1368.61 1378.2 1367.07 1382.36 1366.67 1386.77Z" fill="#FFB27D"/>
<path id="Vector_18" d="M1403.07 1403.31C1423.23 1404.31 1417.14 1408.44 1444.76 1413.44C1472.38 1418.44 1483.44 1410.89 1485.44 1407.16C1487.22 1403.85 1474.38 1398.67 1460.7 1392.82L1460.48 1393.05C1446.84 1396.99 1432.39 1397.16 1418.65 1393.55C1400.38 1388.55 1382.71 1377.67 1370.12 1374.14C1368.61 1378.2 1367.07 1382.36 1366.67 1386.77C1365.52 1399.27 1382.92 1402.31 1403.07 1403.31Z" fill="#C65447"/>
<g id="BrazoPaciente">
<path id="Vector_19" d="M1181.74 668.699C1182.92 666.929 1192.93 636.299 1203.54 636.889C1214.15 637.479 1230.63 639.249 1234.76 638.069C1238.89 636.889 1252.76 626.449 1255.08 628.939C1260.97 635.119 1247.72 654.269 1238.29 657.209C1228.86 660.149 1213.55 655.739 1210.02 659.269C1206.49 662.799 1207.02 675.469 1207.02 675.469L1181.74 668.699Z" fill="#FFB27D"/>
<path id="Vector_20" d="M1206.62 705.718C1189.62 748.648 1148.72 818.618 1138.14 821.268C1129.22 823.498 1085.61 813.548 1050.14 801.458C1029.41 794.378 1011.49 786.558 1004.96 780.038C987.293 762.358 929.123 658.538 929.123 658.538C929.123 658.538 983.753 651.618 1009.67 666.928C1035.59 682.238 1098.04 752.928 1107.46 750.578C1116.88 748.228 1161.66 669.288 1179.33 662.218C1179.33 662.218 1206.43 656.328 1213.5 675.218C1215.32 679.918 1212.33 691.288 1206.62 705.718Z" fill="#699DEE"/>
<path id="Vector_21" d="M1206.62 705.719C1189.62 748.649 1148.72 818.619 1138.14 821.269C1129.22 823.499 1085.61 813.549 1050.14 801.459C1035.48 788.939 1026.48 778.129 1025 775.929C1026.17 776.359 1108.76 807.679 1125.14 800.659C1140.02 794.289 1182.03 722.599 1206.62 705.719Z" fill="#4A75CB"/>
</g>
<path id="Vector_22" d="M936.523 670.749C936.793 670.749 917.443 689.749 898.713 690.289C881.093 690.829 864.023 672.979 864.233 672.859C870.703 669.389 869.793 659.319 857.233 618.689L860.533 618.349L916.053 612.729C916.053 612.729 919.903 629.569 924.603 645.109C928.553 658.149 933.113 670.269 936.523 670.749Z" fill="#FFB27D"/>
<path id="Vector_23" d="M916.053 612.729C916.053 612.729 919.903 629.569 924.603 645.109C895.053 653.229 871.403 631.229 860.533 618.349L916.053 612.729Z" fill="#E2915A"/>
<path id="Vector_24" d="M1039.51 917.099C1039.51 917.099 1261.06 927.589 1306.83 959.019C1352.6 990.449 1414.4 1338.29 1414.4 1338.29C1414.4 1338.29 1409.61 1341.83 1399.2 1342.55C1389.51 1343.22 1368.49 1336.72 1368.49 1336.72C1368.49 1336.72 1266.36 1178.19 1260.26 1139.02C1254.16 1099.85 1257.36 1065.22 1240.05 1063.62C1222.74 1062.02 1005.47 1080.81 975.053 1021.92C944.633 963.029 1039.51 917.099 1039.51 917.099Z" fill="#C65447"/>
<path id="Vector_25" d="M853.383 614.299C853.383 614.299 830.613 594.729 820.593 575.109C813.443 561.109 804.223 503.899 861.803 494.959C873.386 493.104 885.237 493.873 896.483 497.209C910.923 501.649 933.543 513.829 928.853 567.639L928.743 585.359L853.383 614.299Z" fill="#B5453C"/>
<path id="Vector_26" d="M1040.74 935.999C1038.8 935.999 1036.06 935.879 1032.86 935.629C1019.91 934.629 999.273 931.869 992.053 929.719C931.053 911.499 872.523 889.029 847.583 810.109C844.389 799.886 841.877 789.464 840.063 778.909L849.573 742.669L868.113 666.169C868.113 666.169 890.923 678.359 912.113 673.659C922.963 671.249 929.113 658.589 929.113 658.589C929.113 658.589 1043.84 703.509 1082.72 796.589C1121.6 889.669 1134.95 875.529 1146.72 895.589C1158.49 915.649 1106.33 935.559 1040.74 935.999Z" fill="#699DEE"/>
<path id="Vector_27" d="M930.333 624.439C930.333 624.439 861.333 646.749 848.123 603.579C834.913 560.409 817.123 534.219 860.553 518.149C903.983 502.079 917.673 515.919 925.603 529.249C933.533 542.579 947.933 617.519 930.333 624.439Z" fill="#FFB27D"/>
<path id="Vector_28" d="M891.803 507.448C891.803 507.448 888.293 563.908 861.453 580.298C834.613 596.688 819.593 592.738 819.593 592.738C819.593 592.738 836.513 568.158 831.683 535.738C831.683 535.758 870.123 487.708 891.803 507.448Z" fill="#B5453C"/>
<path id="Vector_29" d="M888.353 512.998C888.353 512.998 905.983 519.998 912.793 529.918C919.603 539.838 928.073 561.998 934.443 559.238C934.443 559.238 938.223 520.438 916.203 505.868C892.853 490.418 888.353 512.998 888.353 512.998Z" fill="#B5453C"/>
<path id="Vector_30" d="M1032.86 935.579C1019.91 934.579 999.273 931.819 992.053 929.669C931.053 911.449 872.523 888.979 847.583 810.059C847.483 809.479 847.383 808.899 847.273 808.309L855.733 801.659C864.228 794.98 874.358 790.7 885.068 789.264C895.778 787.827 906.678 789.286 916.633 793.489C964.743 813.829 1030.93 850.689 1032.86 935.579Z" fill="#4A75CB"/>
<path id="Vector_31" d="M868.113 666.119C868.113 666.119 796.863 676.829 785.113 721.539C773.363 766.249 762.863 912.349 773.473 923.889C784.083 935.429 815.743 921.999 822.743 916.269C829.743 910.539 866.333 761.929 866.333 761.929C866.333 761.929 884.233 694.779 868.113 666.119Z" fill="#699DEE"/>
<path id="Vector_32" d="M976.603 871.438C976.603 871.438 1017.6 863.508 1022.21 865.438C1026.82 867.368 1052.62 890.558 1049.98 895.188C1047.34 899.818 1036.75 903.118 1024.85 899.188C1012.95 895.258 987.173 893.188 982.553 887.288C977.933 881.388 976.603 871.438 976.603 871.438Z" fill="#FFB27D"/>
<path id="Vector_33" d="M987.613 865.709C987.613 865.709 827.613 863.069 789.293 888.189C789.293 888.189 766.813 911.319 773.433 923.889C780.053 936.459 800.533 934.459 809.783 933.799C819.033 933.139 981.003 896.119 981.003 896.119C981.003 896.119 999.513 882.239 987.613 865.709Z" fill="#699DEE"/>
<path id="Vector_34" d="M851.453 909.999C851.453 909.999 1033.45 853.449 1079.23 907.249C1119.29 954.379 1227.92 1140.93 1233.64 1251.35C1239.19 1358.64 1134.76 1429.18 1027.33 1429.18H836.523L851.453 909.999Z" fill="#F1A34F"/>
<path id="Vector_35" d="M1125.25 1251.38C1119.53 1141 1042.06 964.999 1013.91 920.919C972.853 856.579 795.643 918.379 717.853 949.499C673.623 818.069 629.943 688.999 606.223 619.069C600.924 603.416 590.851 589.819 577.42 580.191C563.99 570.564 547.878 565.39 531.353 565.399C531.353 565.399 404.853 546.709 385.283 715.239C322.623 1254.7 372.973 1428.66 597.743 1430C625.933 1430.17 681.033 1429.67 728.123 1429.14V1429.21H918.943C1026.37 1429.21 1130.8 1358.67 1125.25 1251.38Z" fill="#F1A34F"/>
<path id="Vector_36" d="M1125.25 1251C1119.52 1140.25 1042.07 963.799 1013.91 919.579C978.913 864.639 845.353 901.379 758.403 932.769C743.203 938.259 729.403 943.589 717.863 948.229C673.623 816.449 629.943 686.999 606.233 616.859C600.956 601.175 590.892 587.543 577.459 577.881C564.026 568.218 547.9 563.013 531.353 562.999C531.353 562.999 518.833 563.119 501.623 564.689C473.893 567.219 434.023 573.529 414.913 589.209C401.913 599.839 393.043 646.509 385.313 713.279C367.043 871.009 358.383 997.599 360.843 1097.81C362.103 1149.21 366.303 1193.67 373.633 1231.81C378.753 1258.55 385.413 1282.21 393.693 1302.99C429.563 1393.16 495.693 1429.49 597.773 1430.1C609.643 1430.17 626.273 1430.1 645.083 1430.01C670.943 1429.84 700.893 1429.53 728.153 1429.23V1429.31H918.943C1026.37 1429.38 1130.81 1358.62 1125.25 1251Z" fill="#D16E24"/>
<path id="Vector_37" d="M715.743 940.889L629.463 974.769C604.293 882.159 530.093 608.819 524.233 584.069C521.093 570.769 511.383 565.959 501.603 564.729C518.813 563.159 531.343 563.039 531.343 563.039C547.866 563.039 563.973 568.216 577.402 577.843C590.831 587.469 600.907 601.061 606.213 616.709C629.573 685.569 672.243 811.639 715.743 940.889Z" fill="#F1A34F"/>
<path id="Vector_38" opacity="0.4" d="M774.363 1028.76C760.913 988.448 677.083 1001.04 677.083 1001.04C677.083 1001.04 620.163 1071.61 603.603 1073.29C587.043 1074.97 637.753 1005.29 637.753 1005.29C605.673 1002.77 523.903 1034.68 523.903 1034.68C523.903 1034.68 529.093 1117.01 512.523 1115.34C495.953 1113.67 512.523 1042.25 512.523 1042.25C481.523 1049.81 452.523 1079.25 452.523 1079.25C416.313 1127.13 493.933 1162.42 493.933 1162.42C493.933 1162.42 494.933 1190.97 473.223 1223.74C473.223 1223.74 445.903 1257.42 454.673 1300.98H430.673C435.283 1269.63 415.993 1245.85 415.993 1245.85C399.513 1220.99 400.303 1199.33 400.303 1199.33C400.303 1199.33 459.173 1172.56 431.703 1136.24C431.703 1136.24 409.703 1113.92 386.163 1108.24C386.163 1108.24 398.723 1162.4 386.163 1163.68C373.603 1164.96 377.523 1102.5 377.523 1102.5C377.523 1102.5 370.803 1099.87 360.893 1096.41C362.153 1147.66 366.343 1191.98 373.673 1230.05C380.953 1227.13 386.543 1223.31 389.313 1218.49C389.783 1217.65 390.243 1216.86 390.673 1216.1C390.337 1216.96 389.879 1217.76 389.313 1218.49C394.953 1221.16 403.423 1233.92 409.313 1243.7C410.153 1245.38 411.483 1247.7 413.433 1250.78C414.233 1252.21 414.883 1253.38 415.323 1254.19C422.103 1267.96 422.323 1288.01 421.623 1301.02H334.323V1304.8H339.403C341.263 1355.01 380.043 1397.66 434.453 1415.49H355.903C345.533 1415.49 337.133 1422.31 337.133 1430.73H645.423C645.424 1429.69 645.296 1428.66 645.043 1427.66C643.303 1420.72 635.743 1415.49 626.663 1415.49H548.203C602.613 1397.66 641.383 1355.01 643.203 1304.8H646.743V1301.02H484.743C488.493 1294.35 493.063 1287.83 498.423 1283.02L500.873 1281.02C503.523 1279.02 505.373 1277.53 506.633 1276.41C514.783 1270.05 526.073 1261.93 531.503 1261.15C531.31 1260.43 531.235 1259.68 531.283 1258.93C531.353 1259.65 531.433 1260.38 531.503 1261.15C533.363 1278.86 575.713 1294.34 601.763 1297.53C627.813 1300.72 619.763 1292.01 610.763 1279.12C601.763 1266.23 573.383 1260.47 566.903 1254.53C560.423 1248.59 573.813 1248.53 589.523 1254.4C605.233 1260.27 607.363 1275.74 632.523 1285.52C657.683 1295.3 695.593 1261.4 695.593 1261.4C675.533 1260.57 646.873 1242.88 647.913 1237.47C648.953 1232.06 696.553 1246.81 704.693 1247.47C712.833 1248.13 731.343 1239.97 734.203 1213.35C737.063 1186.73 683.343 1179.35 683.343 1179.35C683.343 1179.35 670.943 1186.83 656.953 1194.35C654.193 1191.44 649.703 1188.22 644.463 1184.63C649.083 1181.3 653.243 1178.45 655.823 1176.7C661.458 1177.93 667.172 1178.77 672.923 1179.21C716.393 1182.56 749.513 1116.21 749.513 1116.21C719.513 1123.77 665.683 1110.33 663.603 1101.93C661.523 1093.53 741.223 1094.36 753.603 1091.84C765.983 1089.32 787.823 1069.09 774.363 1028.76ZM508.363 1187.53C507.606 1186.58 506.996 1185.52 506.553 1184.39L508.363 1187.53ZM500.563 1276.45C490.857 1282.8 482.609 1291.14 476.363 1300.91H466.093C464.823 1284.23 464.323 1254.46 474.093 1234.6C474.673 1233.53 475.513 1232.01 476.573 1230.14C477.866 1228.08 478.96 1226.28 479.853 1224.73C480.753 1223.19 481.463 1221.88 482.013 1220.73C489.763 1207.83 500.933 1191.02 508.383 1187.5C510.467 1190.92 513.251 1193.86 516.553 1196.13C502.423 1217.52 529.633 1243.3 529.633 1243.3C529.633 1243.3 522.513 1260.68 500.583 1276.45H500.563ZM614.873 1170.68C592.623 1165.68 565.783 1166.62 555.973 1162.35C542.513 1156.45 562.173 1150.58 589.083 1152.26C607.193 1153.39 619.213 1163.64 638.373 1171.26C630.933 1170.72 622.743 1170.59 614.893 1170.68H614.873Z" fill="#C44F00"/>
<path id="Vector_39" d="M481.043 1199.9C481.043 1199.9 444.043 1156.72 478.763 1129.29C478.763 1129.29 504.133 1113.93 524.823 1115.18C524.823 1115.18 495.503 1164.33 504.993 1169.18C514.483 1174.03 533.743 1112.09 533.743 1112.09C533.743 1112.09 591.483 1106.49 610.053 1115.42C610.053 1115.42 560.693 1155.81 571.053 1158.22C581.413 1160.63 634.743 1121 634.743 1121C634.743 1121 688.473 1130.14 685.613 1162.92C682.753 1195.7 664.233 1205.83 656.093 1204.92C647.953 1204.01 600.353 1185.92 599.313 1192.54C598.273 1199.16 626.953 1221 647.013 1222C647.013 1222 609.133 1263.78 583.953 1251.72C558.773 1239.66 556.623 1220.55 540.953 1213.38C525.283 1206.21 511.853 1206.23 518.333 1213.54C524.813 1220.85 553.223 1227.96 562.193 1243.84C571.163 1259.72 579.193 1270.42 553.193 1266.5C527.193 1262.58 484.803 1243.5 482.943 1221.69L481.043 1199.9Z" fill="#82B378"/>
<path id="Vector_40" d="M659.233 1163.79C659.233 1163.79 513.233 1158.16 481.043 1199.9C481.043 1199.9 473.913 1221.25 451.983 1240.69C451.983 1240.69 420.653 1263.86 418.473 1305.26L424.163 1305.77C424.163 1305.77 433.163 1267.21 449.553 1248.98C450.193 1248.32 451.123 1247.37 452.263 1246.22C454.923 1243.76 456.773 1241.91 458.023 1240.54C466.183 1232.7 477.463 1222.7 482.903 1221.73C482.903 1221.73 468.743 1170 659.233 1163.79Z" fill="#82B378"/>
<path id="Vector_41" d="M351.623 1145.59C351.623 1145.59 410.503 1112.59 383.023 1067.87C383.023 1067.87 361.023 1040.39 337.483 1033.32C337.483 1033.32 350.053 1100.06 337.483 1101.63C324.913 1103.2 328.853 1026.25 328.853 1026.25C328.853 1026.25 266.853 996.418 242.483 998.768C242.483 998.768 280.953 1063.94 268.393 1062.37C255.833 1060.8 212.653 994.848 212.653 994.848C212.653 994.848 149.053 983.068 138.853 1020.76C128.653 1058.45 145.133 1077.29 154.553 1079.64C163.973 1081.99 224.423 1081.21 222.853 1089.06C221.283 1096.91 180.463 1109.48 157.693 1102.41C157.693 1102.41 182.813 1164.41 215.793 1161.3C248.773 1158.19 258.973 1137.74 279.383 1136.17C299.793 1134.6 314.713 1140.1 304.513 1145.59C294.313 1151.08 259.763 1147.4 243.273 1161.41C226.783 1175.42 213.433 1184.06 244.053 1190.35C274.673 1196.64 329.633 1192.7 340.623 1169.15L351.623 1145.59Z" fill="#A8D29F"/>
<path id="Vector_42" d="M367.323 1202.91C350.833 1172.29 351.623 1145.59 351.623 1145.59C332.773 1085.92 167.903 1032.53 167.903 1032.53C377.533 1117.33 340.623 1169.15 340.623 1169.15C346.273 1172.44 354.743 1188.15 360.623 1200.21C361.463 1202.21 362.793 1205.1 364.753 1208.96C365.543 1210.7 366.183 1212.13 366.623 1213.12C377.423 1240.12 371.703 1286.76 371.703 1286.76L378.243 1288.52C392.743 1241.52 367.323 1202.91 367.323 1202.91Z" fill="#82B378"/>
<path id="Vector_43" d="M445.303 1100.12C445.303 1100.12 367.683 1056.65 403.903 997.659C403.903 997.659 432.903 961.429 463.903 952.119C463.903 952.119 447.343 1040.12 463.903 1042.12C480.463 1044.12 475.283 942.759 475.283 942.759C475.283 942.759 557.043 903.439 589.123 906.539C589.123 906.539 538.413 992.439 554.973 990.369C571.533 988.299 628.453 901.369 628.453 901.369C628.453 901.369 712.283 885.839 725.743 935.519C739.203 985.199 717.463 1010.04 705.043 1013.14C692.623 1016.24 612.933 1015.21 615.043 1025.56C617.153 1035.91 670.933 1052.47 700.943 1043.15C700.943 1043.15 667.823 1124.91 624.353 1120.77C580.883 1116.63 567.433 1089.77 540.523 1087.66C513.613 1085.55 493.953 1092.83 507.403 1100.08C520.853 1107.33 566.403 1102.45 588.133 1120.93C609.863 1139.41 627.463 1150.79 587.133 1159.07C546.803 1167.35 474.333 1162.17 459.843 1131.12L445.303 1100.12Z" fill="#A8D29F"/>
<path id="Vector_44" d="M687.473 951.079C687.473 951.079 470.143 1021.46 445.303 1100.08C445.303 1100.08 446.303 1135.26 424.603 1175.63C424.603 1175.63 391.083 1226.52 410.193 1288.48L418.813 1286.17C418.813 1286.17 411.273 1224.69 425.503 1189.09C426.083 1187.78 426.933 1185.9 427.983 1183.6C430.573 1178.52 432.323 1174.78 433.423 1172.07C441.173 1156.18 452.343 1135.47 459.793 1131.12C459.793 1131.16 411.143 1062.86 687.473 951.079Z" fill="#82B378"/>
<path id="Vector_45" d="M290.633 1270.83C290.633 1311.15 306.652 1349.83 335.167 1378.34C363.682 1406.86 402.357 1422.88 442.683 1422.88C483.009 1422.88 521.684 1406.86 550.199 1378.34C578.713 1349.83 594.733 1311.15 594.733 1270.83H290.633Z" fill="#699DEE"/>
<path id="Vector_46" d="M480.103 1421.71C458.709 1424.38 436.992 1422.47 416.391 1416.11C395.791 1409.75 376.779 1399.08 360.615 1384.81C344.451 1370.54 331.504 1353 322.634 1333.35C313.763 1313.7 309.171 1292.39 309.163 1270.83H346.943C346.945 1307.88 360.477 1343.66 384.997 1371.44C409.516 1399.23 443.336 1417.1 480.103 1421.71Z" fill="#A1C7FF"/>
<path id="Vector_47" d="M578.073 1411.86H307.293C304.83 1411.86 302.391 1412.34 300.115 1413.28C297.839 1414.22 295.77 1415.61 294.028 1417.35C292.286 1419.09 290.904 1421.16 289.961 1423.43C289.018 1425.71 288.533 1428.15 288.533 1430.61H596.833C596.833 1428.15 596.348 1425.71 595.405 1423.43C594.462 1421.16 593.08 1419.09 591.338 1417.35C589.596 1415.61 587.527 1414.22 585.251 1413.28C582.975 1412.34 580.536 1411.86 578.073 1411.86Z" fill="#4A75CB"/>
<path id="Vector_48" d="M598.183 1270.83H285.633V1275.49H598.183V1270.83Z" fill="#4A75CB"/>
<path id="Vector_49" d="M2276.16 976.999V1123C2276.16 1148.65 2268.91 1169.41 2259.95 1169.41H1974.02C1965.02 1169.41 1957.81 1148.65 1957.81 1123V976.999C1957.81 951.339 1983.08 927.579 2057.2 928.409L2259.95 930.589C2268.91 930.579 2276.16 951.329 2276.16 976.999Z" fill="#F1A34F"/>
<path id="Vector_50" d="M2314.04 976.999V1123C2314.04 1148.65 2306.79 1169.41 2297.83 1169.41H2011.9C2002.9 1169.41 1995.69 1148.65 1995.69 1123V976.999C1995.69 951.339 2022.61 926.759 2063.79 927.579L2297.79 930.579C2306.79 930.579 2314.04 951.329 2314.04 976.999Z" fill="#E78B37"/>
<path id="Vector_51" d="M2243.54 801.869C2247.43 793.259 2241.54 433.869 2329.22 438.149C2416.9 442.429 2580.44 446.749 2580.44 446.749C2580.44 446.749 2654.44 453.209 2609.65 629.689C2564.86 806.169 2574.65 1085.95 2574.65 1085.95H2251.33L2243.54 801.869Z" fill="#F1A34F"/>
<path id="Vector_52" d="M2547.3 629.719C2541.9 650.799 2537.42 673.329 2533.47 696.659C2517.65 791.129 2512.78 898.779 2511.59 976.919C2510.67 1041.49 2512.25 1085.92 2512.25 1085.92H2189.03L2181.26 801.829C2185.08 793.269 2179.26 433.829 2266.9 438.159C2311.7 440.399 2376.4 442.509 2428.9 444.219C2435.48 444.349 2441.9 444.619 2448.13 444.749C2488.72 445.939 2518.23 446.749 2518.23 446.749C2518.23 446.749 2592.1 453.149 2547.3 629.719Z" fill="#E78B37"/>
<path id="Vector_53" d="M2344.28 1350.69V1161.11C2344.24 1157.21 2342.68 1153.47 2339.92 1150.71C2337.16 1147.96 2333.43 1146.39 2329.52 1146.35H2329.39C2326.83 1146.36 2324.32 1147.09 2322.14 1148.45C2319.88 1149.7 2317.99 1151.53 2316.67 1153.76C2315.35 1155.98 2314.64 1158.52 2314.63 1161.11V1351L2312.92 1351.29C2292.23 1354.57 2272.9 1363.69 2257.21 1377.58C2241.53 1391.46 2230.13 1409.54 2224.37 1429.69H2436.12C2430.2 1408.99 2418.34 1390.48 2402.02 1376.45C2385.7 1362.41 2365.63 1353.45 2344.28 1350.69Z" fill="#D16E24"/>
<path id="Vector_54" opacity="0.4" d="M2533.2 690.999C2525.3 569.769 2461.92 466.079 2448.08 444.729L2309.2 430.999C2309.2 430.999 2202.14 501.829 2228.5 774.419C2242.08 914.979 2300.05 822.919 2353.01 700.759L2342.14 965.459C2342.14 965.459 2471.4 974.279 2511.59 976.919C2512.78 898.779 2517.65 791.129 2533.47 696.659C2533.47 694.809 2533.33 692.829 2533.2 690.999Z" fill="#C44F00"/>
<path id="Vector_55" d="M2322.14 1148.45C2319.88 1149.7 2317.99 1151.53 2316.67 1153.76C2315.35 1155.98 2314.64 1158.52 2314.63 1161.11V1393.41C2314.61 1396 2315.3 1398.55 2316.62 1400.78C2317.95 1403.01 2319.86 1404.84 2322.14 1406.06C2324.37 1404.78 2326.23 1402.94 2327.52 1400.72C2328.82 1398.5 2329.51 1395.98 2329.52 1393.41V1161.11C2329.51 1158.54 2328.82 1156.01 2327.52 1153.79C2326.23 1151.57 2324.37 1149.73 2322.14 1148.45Z" fill="#F1A34F"/>
<path id="Vector_56" d="M2312.92 1351.24C2292.23 1354.52 2272.9 1363.64 2257.21 1377.53C2241.53 1391.41 2230.13 1409.49 2224.37 1429.64H2401.47C2395.73 1409.48 2384.34 1391.39 2368.65 1377.5C2352.96 1363.61 2333.62 1354.5 2312.92 1351.24Z" fill="#F1A34F"/>
<path id="Vector_57" d="M2579.22 1102.2L2571.91 1144.2C2571.91 1153.2 2571.97 1169.45 2563.01 1169.45H2059.67C2057.54 1169.45 2055.44 1169.03 2053.47 1168.22C2051.5 1167.4 2049.71 1166.21 2048.21 1164.7C2046.7 1163.2 2045.51 1161.41 2044.69 1159.44C2043.88 1157.48 2043.46 1155.37 2043.46 1153.24V1102.24C2043.46 1100.11 2043.88 1098 2044.7 1096.04C2045.51 1094.07 2046.71 1092.28 2048.21 1090.78C2049.72 1089.28 2051.5 1088.08 2053.47 1087.27C2055.44 1086.46 2057.54 1086.04 2059.67 1086.04H2563.01C2567.3 1086.04 2571.42 1087.74 2574.46 1090.77C2577.5 1093.8 2579.21 1097.91 2579.22 1102.2Z" fill="#F1A34F"/>
<path id="Vector_58" d="M1973.74 1399.1C1974.66 1403.58 1975.58 1408.19 1975.32 1412.94C1974.96 1414.24 1974.34 1415.46 1973.5 1416.52C1972.66 1417.58 1971.62 1418.47 1970.44 1419.13L1968.07 1423.61C1965.57 1424.8 1959.5 1425.72 1951.73 1426.51L1951.6 1422.82C1950.55 1422.8 1949.49 1422.84 1948.44 1422.95V1422.82C1936.58 1422.73 1924.82 1424.92 1913.78 1429.27C1913.65 1429.27 1913.52 1429.41 1913.39 1429.41L1906.14 1429.8H1872.14C1855.8 1427.43 1849.35 1420.8 1848.14 1417.55C1848.14 1416.63 1860.4 1410.55 1870.54 1407.67C1870.8 1407.6 1871.07 1407.55 1871.33 1407.53C1872.78 1407.01 1875.55 1405.95 1876.21 1405.82C1878.05 1405.16 1880.21 1404.63 1882.01 1404.11C1899.01 1399.11 1910.47 1387.77 1923.91 1375.25C1939.32 1360.89 1960.27 1296.85 1957.51 1295.67L1992.16 1300.14C1992.16 1300.14 1964.36 1355.75 1966.6 1373.01C1967.52 1380.65 1970.29 1387.11 1972.13 1393.7C1972.27 1393.96 1972.27 1394.36 1972.4 1394.62C1972.77 1395.52 1973.08 1396.45 1973.32 1397.39C1973.49 1398.05 1973.62 1398.57 1973.74 1399.1Z" fill="#EF9A60"/>
<path id="Vector_59" d="M2409.85 918.208L2260.85 912.108C2260.85 912.108 2034.17 926.748 2014.95 959.698L1929.46 1359.52C1929.46 1359.52 1934.2 1365.9 1950.25 1368.65C1958.75 1370.11 1977.25 1365.9 1977.25 1365.9C1977.25 1365.9 2087.95 1224.35 2102.18 1135.48C2114.07 1061.21 2118.77 1053.48 2159.49 1054.99C2200.21 1056.5 2325.15 1066.37 2384.49 1054.87C2443.83 1043.37 2409.85 918.208 2409.85 918.208Z" fill="#233862"/>
<path id="Vector_60" d="M1975.99 1409.25C1976.05 1410.51 1975.83 1411.77 1975.34 1412.94C1974.98 1414.24 1974.36 1415.46 1973.52 1416.52C1972.68 1417.58 1971.64 1418.47 1970.46 1419.13C1970.23 1419.35 1969.96 1419.53 1969.67 1419.66H1969.54C1969.41 1419.79 1969.27 1419.79 1969.14 1419.92C1964.8 1422.56 1959 1422.56 1951.62 1422.82H1948.46C1936.6 1422.73 1924.84 1424.92 1913.8 1429.27C1913.67 1429.27 1913.54 1429.41 1913.41 1429.41C1913.01 1429.54 1912.75 1429.67 1912.35 1429.8H1854.74C1846.83 1426.64 1845.25 1421.63 1844.46 1419.8C1843.8 1418.35 1845.65 1416.8 1849.21 1415.05C1849.54 1414.92 1849.85 1414.75 1850.13 1414.53C1855.13 1412.29 1862.65 1409.92 1870.68 1407.28C1870.82 1407.41 1871.08 1407.41 1871.34 1407.54C1876.75 1409.39 1895.59 1415.32 1917.72 1411.1C1936.17 1407.54 1954.49 1398.85 1968.59 1394.63C1969.77 1394.37 1970.96 1393.97 1972.14 1393.71C1972.41 1393.58 1972.67 1393.58 1972.93 1393.45C1973.17 1394 1973.35 1394.57 1973.46 1395.16C1974.98 1399.71 1975.83 1404.46 1975.99 1409.25Z" fill="#365DA4"/>
<path id="Vector_61" d="M1971.25 1417.68L1970.46 1419.13L1968.09 1423.61L1964.8 1429.8H1948.59V1426.51L1948.46 1422.95V1421.37L1970.33 1417.81L1971.25 1417.68Z" fill="#365DA4"/>
<path id="Vector_62" d="M2024.26 1399.1C2025.19 1403.58 2026.11 1408.19 2025.85 1412.94C2025.49 1414.24 2024.87 1415.46 2024.03 1416.52C2023.19 1417.58 2022.15 1418.47 2020.97 1419.13L2018.6 1423.61C2016.1 1424.8 2010.03 1425.72 2002.26 1426.51L2002.13 1422.82C2001.08 1422.8 2000.02 1422.84 1998.97 1422.95V1422.82C1987.11 1422.73 1975.35 1424.92 1964.31 1429.27C1964.18 1429.27 1964.05 1429.41 1963.92 1429.41L1956.67 1429.8H1922.67C1906.33 1427.43 1899.88 1420.8 1898.67 1417.55C1898.67 1416.63 1910.93 1410.55 1921.07 1407.67C1921.33 1407.6 1921.6 1407.55 1921.86 1407.53C1923.31 1407.01 1926.08 1405.95 1926.74 1405.82C1928.58 1405.16 1930.74 1404.63 1932.54 1404.11C1949.54 1399.11 1961 1387.77 1974.44 1375.25C1989.85 1360.89 2010.8 1296.85 2008.04 1295.67L2042.69 1300.14C2042.69 1300.14 2014.89 1355.75 2017.13 1373.01C2018.05 1380.65 2020.82 1387.11 2022.66 1393.7C2022.8 1393.96 2022.8 1394.36 2022.93 1394.62C2023.3 1395.52 2023.61 1396.45 2023.85 1397.39C2024 1398.05 2024.13 1398.57 2024.26 1399.1Z" fill="#FFB27D"/>
<path id="Vector_63" d="M2319.44 548.398L2307.84 594.398L2246.92 835.078C2244.6 838.708 2225.2 846.378 2203.75 853.578C2178.2 862.118 2149.66 870.168 2144.27 869.698C2134.39 868.898 2128.92 848.258 2131.74 842.438C2133.56 838.598 2166.13 821.318 2191.6 805.818C2205.81 797.178 2217.8 789.108 2221.12 784.308C2227.12 775.398 2241.99 693.448 2254.12 633.478C2260.31 602.718 2265.83 577.708 2269.03 571.158C2277.14 554.048 2308.73 549.428 2317.28 548.548C2318 548.46 2318.72 548.41 2319.44 548.398Z" fill="#466AA5"/>
<path id="Vector_64" d="M2449.28 918.339L2300.28 912.249C2300.28 912.249 2073.6 926.889 2054.37 959.839L1975.37 1367.55C1975.37 1367.55 1989.15 1372.26 1997.81 1372.9C2011.6 1373.9 2021.07 1369.4 2021.07 1369.4C2021.07 1369.4 2127.34 1224.49 2141.57 1135.62C2153.46 1061.35 2158.17 1053.62 2198.89 1055.13C2239.61 1056.64 2364.55 1066.51 2423.89 1055.01C2483.23 1043.51 2449.28 918.339 2449.28 918.339Z" fill="#2B478B"/>
<path id="Vector_65" d="M2026.51 1409.25C2026.57 1410.51 2026.35 1411.77 2025.85 1412.94C2025.49 1414.24 2024.87 1415.46 2024.03 1416.52C2023.19 1417.58 2022.15 1418.47 2020.97 1419.13C2020.74 1419.35 2020.47 1419.53 2020.18 1419.66H2020.05C2019.92 1419.79 2019.78 1419.79 2019.65 1419.92C2015.3 1422.56 2009.51 1422.56 2002.13 1422.82H1998.97C1987.11 1422.73 1975.35 1424.92 1964.31 1429.27C1964.18 1429.27 1964.05 1429.41 1963.92 1429.41C1963.52 1429.54 1963.26 1429.67 1962.86 1429.8H1905.28C1897.37 1426.64 1895.79 1421.63 1895 1419.8C1894.34 1418.35 1896.19 1416.8 1899.75 1415.05C1900.09 1414.93 1900.4 1414.75 1900.67 1414.53C1905.67 1412.29 1913.19 1409.92 1921.22 1407.28C1921.36 1407.41 1921.62 1407.41 1921.88 1407.54C1927.29 1409.39 1946.13 1415.32 1968.26 1411.1C1986.71 1407.54 2005.03 1398.85 2019.13 1394.63C2020.31 1394.37 2021.5 1393.97 2022.68 1393.71C2022.95 1393.58 2023.21 1393.58 2023.47 1393.45C2023.71 1394 2023.89 1394.57 2024 1395.16C2025.51 1399.71 2026.35 1404.46 2026.51 1409.25Z" fill="#466AA5"/>
<path id="Vector_66" d="M2021.76 1417.68L2020.97 1419.13L2018.6 1423.61L2015.31 1429.8H1999.1V1426.51L1998.97 1422.95V1421.37L2020.84 1417.81L2021.76 1417.68Z" fill="#466AA5"/>
<path id="Vector_67" d="M2313.33 561.799C2313.05 561.879 2336.84 579.579 2357.26 577.409C2376.45 575.409 2392.33 553.479 2392.08 553.409C2384.55 550.599 2384.08 539.539 2391.66 493.589L2388.02 493.719L2326.95 495.839C2326.95 495.839 2325.27 514.679 2322.47 532.229C2320.12 546.999 2316.96 560.779 2313.33 561.799Z" fill="#FFB27D"/>
<path id="Vector_68" d="M2307.84 594.439L2246.92 835.119C2244.6 838.749 2225.2 846.419 2203.75 853.619C2201.77 848.672 2200.05 843.625 2198.59 838.499C2195.43 827.813 2193.09 816.901 2191.59 805.859C2205.8 797.219 2217.79 789.149 2221.11 784.349C2227.11 775.439 2241.98 693.489 2254.11 633.519C2281.42 606.709 2307.18 593.519 2307.18 593.519L2307.84 594.439Z" fill="#2B478B"/>
<path id="Vector_69" d="M2326.95 495.818C2326.95 495.818 2325.27 514.658 2322.47 532.208C2355.74 536.648 2378.14 509.278 2388.02 493.698L2326.95 495.818Z" fill="#EF9A60"/>
<g id="CabezaPsico">
<path id="Vector_70" d="M2393.99 483.699C2465.47 478.259 2479.45 331.559 2394.41 349.429C2394.41 349.429 2382.49 341.639 2376.6 341.559C2376.6 341.559 2381.15 343.219 2383.14 346.079C2373.95 344.019 2359.7 340.689 2348.48 347.079C2233.49 412.289 2366.29 485.799 2393.99 483.699Z" fill="#163560"/>
<path id="Vector_71" d="M2395.18 488.239C2395.18 488.239 2416.98 463.639 2424.95 440.869C2430.63 424.609 2432.17 361.179 2368.37 360.009C2355.53 359.71 2342.79 362.301 2331.08 367.589C2316.08 374.589 2293.32 391.109 2306.39 448.799L2309.1 468.009L2395.18 488.239Z" fill="#163560"/>
<path id="Vector_72" d="M2313.19 510.639C2313.19 510.639 2391.33 524.639 2399.3 475.839C2407.27 427.039 2422.74 395.999 2373.16 384.999C2323.58 373.999 2310.85 390.999 2304.23 406.669C2297.61 422.339 2293.07 505.739 2313.19 510.639Z" fill="#FFB27D"/>
<path id="Vector_73" d="M2337.67 377.998C2337.67 377.998 2349.84 438.728 2381.39 452.528C2412.94 466.328 2428.65 459.828 2428.65 459.828C2428.65 459.828 2406.65 435.678 2407.09 399.828C2407.09 399.818 2358.27 353.378 2337.67 377.998Z" fill="#163560"/>
<path id="Vector_74" d="M2342.24 383.519C2342.24 383.519 2324.14 393.699 2318.24 405.519C2312.34 417.339 2306.42 442.609 2299.1 440.519C2299.1 440.519 2289.25 398.979 2310.98 379.909C2334.01 359.679 2342.24 383.519 2342.24 383.519Z" fill="#163560"/>
</g>
<path id="Vector_75" d="M2455.43 992.398C2449.22 1003.54 2435.72 1004.4 2418.76 999.538C2410.59 997.278 2401.71 993.538 2392.4 989.258C2391.53 988.743 2390.62 988.282 2389.68 987.878C2362.22 974.478 2331.59 954.298 2307.68 938.938C2257.5 906.778 2254.17 924.788 2239.3 907.028C2239.3 907.028 2254.59 890.958 2234.98 703.158C2229.41 649.398 2319.47 548.398 2319.47 548.398C2319.47 548.398 2320.07 581.738 2392.08 553.398C2394.63 552.478 2414.32 594.908 2431.5 646.158C2434.31 654.352 2436.98 662.655 2439.5 671.068C2451.5 710.788 2460.37 752.278 2457.96 781.128C2457.57 787.338 2456.35 793.469 2454.34 799.358L2453.7 800.858C2428.93 860.218 2473.18 960.298 2455.43 992.398Z" fill="#466AA5"/>
<path id="Vector_76" d="M2207.68 757.749L2074.96 748.259L2131.8 902.999L2256.08 915.889L2207.68 757.749Z" fill="#B64C41"/>
<path id="Vector_77" d="M2206.5 759.418L2073.79 749.928L2130.62 904.668L2254.9 917.558L2206.5 759.418Z" fill="#D6716B"/>
<path id="Vector_78" d="M2194.56 756.809C2194.56 756.809 2197.75 736.809 2186.45 736.349C2175.15 735.889 2168.54 755.529 2168.54 755.529L2194.56 756.809Z" fill="#B2CBFD"/>
<path id="Vector_79" d="M2173.32 774.998C2176.47 789.268 2194.73 812.608 2193.63 824.418L2108.81 823.318C2108.81 823.318 2109.36 817.828 2091.24 778.848C2083.79 762.848 2092.61 733.848 2100.24 733.198L2186.41 736.358C2186.41 736.358 2167.17 747.158 2173.32 774.998Z" fill="#D2E9FF"/>
<path id="Vector_80" d="M2074.96 748.259L2073.79 749.929L2076.71 750.119L2076.45 749.079L2074.96 748.259Z" fill="#B64C41"/>
<path id="Vector_81" d="M2254.9 917.558L2256.08 915.888L2253.84 914.148L2254.9 917.558Z" fill="#B64C41"/>
<path id="Vector_82" d="M2455.43 992.399C2449.22 1003.54 2435.72 1004.4 2418.76 999.539C2410.59 997.279 2401.71 993.539 2392.4 989.259C2359.4 967.889 2324.11 933.729 2304.29 878.989C2259.74 755.999 2431.02 666.999 2431.02 666.999L2439.45 670.999C2451.45 710.719 2460.32 752.209 2457.91 781.059C2457.52 787.269 2456.3 793.399 2454.29 799.289L2453.65 800.789C2428.93 860.219 2473.18 960.299 2455.43 992.399Z" fill="#2B478B"/>
<path id="Vector_83" d="M2252.99 861.539L2252.58 867.999L2258.37 865.359L2252.99 861.539Z" fill="#F1A34F"/>
<g id="BrazoPsico">
<path id="Vector_84" d="M2309.77 792.896L2304.4 789.08L2252.9 861.596L2258.27 865.411L2309.77 792.896Z" fill="#D16E24"/>
<path id="Vector_85" d="M2321.67 830.279C2321.67 830.279 2298.44 820.628 2286.67 823.348C2274.9 826.068 2250.91 833.938 2251.96 840.408C2253.01 846.878 2278.69 854.408 2290.74 850.058C2302.79 845.708 2309.74 854.818 2323.96 852.498C2338.18 850.178 2321.67 830.279 2321.67 830.279Z" fill="#FFB27D"/>
<path id="Vector_86" d="M2391.78 554C2391.78 554 2464.92 566.42 2474.03 585.7C2483.14 604.98 2477.09 807 2471.4 828.33C2465.71 849.66 2347.57 859.7 2312.18 858.41C2312.18 858.41 2306.62 834.41 2313.24 821.04C2319.86 807.67 2407.3 793.18 2414.48 783.22C2421.66 773.26 2400.12 650.47 2402.91 626.45C2405.7 602.43 2391.78 554 2391.78 554Z" fill="#466AA5"/>
</g>
<path id="Vector_87" d="M2105.46 837.998C2105.46 837.998 2129.62 835.658 2126.35 845.558C2123.08 855.458 2113.96 860.238 2113.96 860.238C2113.96 860.238 2095.28 846.778 2105.46 837.998Z" fill="#FFB27D"/>
<path id="Vector_88" d="M2541.34 976.998V1123C2541.34 1148.65 2534.09 1169.41 2525.13 1169.41H2239.2C2230.2 1169.41 2222.99 1148.65 2222.99 1123V976.998C2222.99 951.338 2245.79 925.939 2323.99 930.589H2525.1C2534.09 930.579 2541.34 951.328 2541.34 976.998Z" fill="#F1A34F"/>
<path id="Vector_89" d="M2579.22 977.999V1124C2579.22 1149.65 2571.97 1170.41 2563.01 1170.41H2277.08C2268.08 1170.41 2260.87 1149.65 2260.87 1124V977.999C2260.87 952.339 2285.32 929.409 2342.97 931.589L2547.2 930.229C2579.32 930.219 2579.22 952.329 2579.22 977.999Z" fill="#DF812F"/>
<path id="Vector_90" d="M2879.99 1042.56H2508.23C2503.97 1042.57 2499.89 1044.27 2496.88 1047.28C2493.87 1050.3 2492.17 1054.38 2492.16 1058.64V1064.4C2492.17 1068.66 2493.87 1072.74 2496.88 1075.75C2499.89 1078.77 2503.97 1080.47 2508.23 1080.48H2679.74L2689.36 1374.78C2641.94 1376.27 2602.77 1399.78 2592.46 1430.94H2795.87C2785.63 1400.02 2747 1376.66 2700.09 1374.83L2708.61 1080.48H2880.04C2884.3 1080.47 2888.39 1078.77 2891.4 1075.75C2894.41 1072.74 2896.11 1068.66 2896.12 1064.4V1058.64C2896.11 1054.37 2894.4 1050.28 2891.38 1047.27C2888.36 1044.25 2884.26 1042.56 2879.99 1042.56Z" fill="#4A75CB"/>
<path id="Vector_91" d="M2670.74 1010.64C2668.37 1009.18 2663.74 1009.75 2660.43 1010.45V1005.61C2660.43 1004.56 2660.36 1003.5 2660.22 1002.46H2610.15C2610.02 1003.5 2609.95 1004.56 2609.95 1005.61V1015.44C2609.95 1020.57 2611.51 1025.57 2614.42 1029.79C2617.34 1034.01 2621.47 1037.24 2626.27 1039.05C2631.07 1040.86 2636.3 1041.16 2641.28 1039.92C2646.25 1038.67 2650.73 1035.94 2654.11 1032.09C2654.11 1032.09 2666.02 1029.16 2669.76 1024.72C2673.5 1020.28 2674.74 1013.09 2670.74 1010.64ZM2668.09 1019.72C2666.83 1022.99 2661.15 1024.72 2658.35 1025.43C2659.49 1022.79 2660.17 1019.98 2660.35 1017.12C2662.08 1014.76 2664.81 1013.37 2666.81 1013.73C2668.62 1014.06 2669.74 1015.59 2668.1 1019.72H2668.09Z" fill="#699DEE"/>
<path id="Vector_92" d="M2614.06 1005.61V1015.44C2614.08 1022.13 2616.75 1028.53 2621.47 1033.26C2626.2 1037.99 2632.61 1040.66 2639.29 1040.68C2640.43 1040.68 2641.56 1040.6 2642.68 1040.44C2636.64 1039.6 2631.1 1036.61 2627.09 1032.02C2623.08 1027.43 2620.86 1021.54 2620.84 1015.44V1005.61C2620.84 1004.55 2620.91 1003.5 2621.05 1002.45H2614.26C2614.13 1003.5 2614.06 1004.55 2614.06 1005.61Z" fill="#AFCDFB"/>
<path id="Vector_93" d="M2645.48 1038.48H2624.88V1041.56H2645.48V1038.48Z" fill="#699DEE"/>
<path id="Vector_94" d="M2803.34 1010.64C2800.97 1009.18 2796.34 1009.75 2793.03 1010.45V1005.61C2793.03 1004.56 2792.96 1003.5 2792.82 1002.46H2742.74C2742.61 1003.5 2742.54 1004.56 2742.54 1005.61V1015.44C2742.54 1020.57 2744.1 1025.57 2747.01 1029.79C2749.93 1034.01 2754.06 1037.24 2758.86 1039.05C2763.66 1040.86 2768.89 1041.16 2773.87 1039.92C2778.84 1038.67 2783.32 1035.94 2786.7 1032.09C2786.7 1032.09 2798.61 1029.16 2802.35 1024.72C2806.09 1020.28 2807.31 1013.09 2803.34 1010.64ZM2800.69 1019.72C2799.43 1022.99 2793.75 1024.72 2790.95 1025.43C2792.09 1022.79 2792.77 1019.98 2792.95 1017.12C2794.68 1014.76 2797.41 1013.37 2799.41 1013.73C2801.21 1014.06 2802.29 1015.59 2800.74 1019.72H2800.69Z" fill="#699DEE"/>
<path id="Vector_95" d="M2746.65 1006.61V1016.44C2746.67 1023.13 2749.34 1029.53 2754.06 1034.26C2758.79 1038.99 2765.2 1041.66 2771.88 1041.68C2773.02 1041.68 2774.15 1041.6 2775.27 1041.44C2769.23 1040.6 2763.69 1037.61 2759.68 1033.02C2755.67 1028.43 2753.45 1022.54 2753.43 1016.44V1006.61C2753.43 1005.55 2753.5 1004.5 2753.64 1003.45H2746.85C2746.72 1004.5 2746.65 1005.55 2746.65 1006.61Z" fill="#AFCDFB"/>
<path id="Vector_96" d="M2778.07 1038.48H2757.47V1041.56H2778.07V1038.48Z" fill="#699DEE"/>
</g>
</g>
</g>
<defs>
<filter id="filter0_d_6_3" x="16" y="-14" width="2990.07" height="1455.06" filterUnits="userSpaceOnUse" color-interpolation-filters="sRGB">
<feFlood flood-opacity="0" result="BackgroundImageFix"/>
<feColorMatrix in="SourceAlpha" type="matrix" values="0 0 0 0 0 0 0 0 0 0 0 0 0 0 0 0 0 0 127 0" result="hardAlpha"/>
<feOffset dy="4"/>
<feGaussianBlur stdDeviation="2"/>
<feComposite in2="hardAlpha" operator="out"/>
<feColorMatrix type="matrix" values="0 0 0 0 0 0 0 0 0 0 0 0 0 0 0 0 0 0 0.25 0"/>
<feBlend mode="normal" in2="BackgroundImageFix" result="effect1_dropShadow_6_3"/>
<feBlend mode="normal" in="SourceGraphic" in2="effect1_dropShadow_6_3" result="shape"/>
</filter>
<clipPath id="clip0_6_3">
<rect width="3022.33" height="1450.46" fill="white"/>
</clipPath>
</defs>
</svg>
