<svg xmlns="http://www.w3.org/2000/svg" viewBox="0 0 3022.33 1450.46"><defs><style>.cls-1{fill:#ebf2f9;}.cls-2{fill:#82b378;}.cls-3{fill:#a8d29f;}.cls-4{fill:#f1a34f;}.cls-5{fill:#d16e24;}.cls-6{fill:#e78b37;}.cls-7{fill:#c44f00;opacity:0.4;}.cls-8{fill:#df812f;}.cls-9{fill:#b5453c;}.cls-10{fill:#ffb27d;}.cls-11{fill:#c65447;}.cls-12{fill:#aa413e;}.cls-13{fill:#699dee;}.cls-14{fill:#4a75cb;}.cls-15{fill:#e2915a;}.cls-16{fill:#a1c7ff;}.cls-17{fill:#ef9a60;}.cls-18{fill:#233862;}.cls-19{fill:#365da4;}.cls-20{fill:#466aa5;}.cls-21{fill:#2b478b;}.cls-22{fill:#163560;}.cls-23{fill:#b64c41;}.cls-24{fill:#d6716b;}.cls-25{fill:#b2cbfd;}.cls-26{fill:#d2e9ff;}.cls-27{fill:#afcdfb;}.cls-28{fill:#283250;}</style></defs><g id="Capa_2" data-name="Capa 2"><g id="Слой_2" data-name="Слой 2"><path class="cls-1" d="M2986.92,1278.52c-45.71,103.88-134.68,149.73-219.74,168.54H268.61C32.75,1358.94-92.76,718.15,257,562.27,448.66,476.84,580.68,462,618,327.4c156.7-566.15,718.58-213.07,926.53-272.5,739.57-211.39,628.6,824.35,1089.43,730.46C2845.4,742.28,3121.15,973.53,2986.92,1278.52Z"/><path class="cls-2" d="M1736.15,967.46s-82.15,61.09-98.17,57.39,60-65.95,60-65.95c-28.62-13.76-117.59-5.13-117.59-5.13s-29.64,95.57-44.25,88,30.55-83.28,30.55-83.28c-31.87-1.92-71,21.75-71,21.75-53.53,42.27,3.51,108.82,3.51,108.82s-11,32.9-44.78,62.85c0,0-48.28,35.71-51.63,99.5l8.76.78s13.89-59.42,39.13-87.52c1-1,2.4-2.46,4.15-4.23h0c4.12-3.82,7-6.69,8.95-8.82,12.56-12.07,29.92-27.44,38.28-28.93a16.07,16.07,0,0,1-.36-4.2c.11,1.34.23,2.73.36,4.2,2.86,33.64,68.12,63,108.26,69s27.74-10.46,13.9-34.92-57.6-35.42-67.59-46.69,10.66-11.29,34.85-.24,27.5,40.5,66.3,59.08,97.18-45.8,97.18-45.8c-30.92-1.57-75.08-35.16-73.48-45.43s75,17.73,87.5,19.07,41.07-14.26,45.49-64.77S1736.15,967.46,1736.15,967.46Z"/><path class="cls-3" d="M1299.83,1005.39s90.74-50.81,48.39-119.78c0,0-33.87-42.34-70.17-53.23,0,0,19.36,102.84,0,105.26s-13.31-116.15-13.31-116.15-95.58-46-133.09-42.35c0,0,59.29,100.42,39.93,98s-85.9-104-85.9-104S987.68,754.94,972,813s9.68,87.11,24.19,90.74,107.69,2.42,105.27,14.52-65.34,31.46-100.43,20.57c0,0,38.72,95.58,89.54,90.74s66.54-36.3,98-38.72,54.44,6,38.71,14.52-69,2.78-94.37,24.38-46,34.91,1.21,44.59,131.88,3.63,148.82-32.67Z"/><path class="cls-2" d="M1324,1093.72c-25.41-47.19-24.2-88.33-24.2-88.33-29-91.95-283.12-174.22-283.12-174.22,323,130.67,266.18,210.52,266.18,210.52,8.71,5.08,21.76,29.29,30.82,47.87,1.29,3.16,3.33,7.54,6.37,13.48h0c1.23,2.69,2.21,4.88,2.89,6.42,16.63,41.61,7.82,113.48,7.82,113.48l10.08,2.71C1363.21,1153.22,1324,1093.72,1324,1093.72Z"/><path class="cls-3" d="M1444.19,935.31s-119.61-67-63.79-157.89c0,0,44.65-55.82,92.5-70.17,0,0-25.52,135.56,0,138.75s17.54-153.11,17.54-153.11,126-60.6,175.44-55.82c0,0-78.15,132.38-52.63,129.19S1726.48,629.1,1726.48,629.1s129.19-23.93,149.92,52.63-12.76,114.83-31.9,119.61-141.94,3.19-138.75,19.14,86.12,41.47,132.38,27.11c0,0-51,126-118,119.62s-87.72-47.85-129.19-51-71.77,8-51,19.14,90.91,3.66,124.4,32.13,60.61,46-1.59,58.78-173.84,4.78-196.17-43.06Z"/><path class="cls-2" d="M1817.39,705.65s-334.92,108.45-373.2,229.66c0,0,1.6,54.23-31.9,116.43,0,0-51.65,78.43-22.2,173.91l13.29-3.57s-11.62-94.73,10.31-149.59c.89-2,2.19-4.92,3.81-8.46,4-7.83,6.7-13.6,8.4-17.77,11.94-24.49,29.14-56.41,40.62-63.1C1466.52,983.16,1391.56,877.9,1817.39,705.65Z"/><path class="cls-4" d="M1244.79,924s198-56.55,247.69-2.75c43.56,47.13,161.69,233.68,167.91,344.1,6,107.29-107.52,177.83-224.34,177.83H1228.56Z"/><path class="cls-5" d="M1107.77,979s279.9-127.15,332.92-44.09c28.15,44.1,105.61,220,111.33,330.46,5.55,107.29-98.88,177.83-206.31,177.83H1154.9Z"/><path class="cls-6" d="M555.9,587.86s348.15-9.43,481.05-9.13c68.37.15,66.68,51.9,99.53,111.86,65.78,120.1,175,326.67,166.33,358.95-12.37,46-478.42,77.76-511.41,67.16S555.9,587.86,555.9,587.86Z"/><path class="cls-7" d="M828.51,680.93s4.71-68.33-11.79-62.44S695.37,719.81,711.87,944.85l48.3,41.23,368.77-61.26Z"/><path class="cls-4" d="M1297.29,957.89l-124.2,61.36s-106.44-391.34-113.51-421.18c-3.14-13.3-12.85-18.11-22.63-19.34,17.21-1.57,29.74-1.69,29.74-1.69a79.05,79.05,0,0,1,74.87,53.67c23.72,70,67.39,199,111.63,330.43,11.57-4.63,25.35-9.95,40.55-15.41Z"/><path class="cls-8" d="M1048.69,979.08s401.4-35.54,450.88,11.85c23,22,35.88,121.65,43.11,222.09,9,125.29-92.52,232.51-217.43,230.71l-435.14.2Z"/><path class="cls-9" d="M898.45,494.79c-11.49-2.58-23.42.4-31.48,3.39,1.45-2.83,5.37-4.89,5.37-4.89-5.33.79-15.15,9.31-15.15,9.31-79.15-5.66-58.44,102-49.55,125.79s17.57,51.6-11.15,84.12c-56.5,64,25,120.7,25,120.7.64.16,48.94,44.4,48.94,44.4-7.77-19,51-149.92,88.69-195.25,6.31-20.39,1.28-51.47.87-53.92,5.24,24.27,5.25,38.77,3.91,47.35C992.57,626.87,928.92,501.61,898.45,494.79Z"/><path class="cls-10" d="M1202,682.7c1.18-1.77,11.19-32.4,21.8-31.81s27.09,2.36,31.22,1.18,18-11.62,20.32-9.13c5.89,6.18-7.36,25.33-16.79,28.27s-24.74-1.47-28.27,2.06-3,16.2-3,16.2Z"/><path class="cls-10" d="M1482.36,1360.71c-1.15,12.5,16.25,15.54,36.41,16.54s14.06,5.13,41.68,10.14,38.69-2.56,40.68-6.29c1.78-3.31-11.06-8.49-24.74-14.34-1.72-.73-3.45-1.49-5.17-2.24-15.4-6.77-24-20.58-36-33.39-11.38-12.13-22.18-51-22.18-51l-37.53-8s10.54,34.95,14.2,49.87c2.15,8.78-1,18.59-3.84,26.06C1484.3,1352.15,1482.77,1356.31,1482.36,1360.71Z"/><path class="cls-11" d="M1518.77,1377.25c20.15,1,14.06,5.13,41.68,10.14s38.69-2.56,40.68-6.29c1.78-3.31-11.06-8.49-24.74-14.34l-.21.23a78.71,78.71,0,0,1-41.84.5c-18.27-5-35.94-15.88-48.52-19.41-1.52,4.07-3,8.23-3.46,12.63C1481.21,1373.21,1498.61,1376.25,1518.77,1377.25Z"/><path class="cls-12" d="M1108.62,915.64S1358,896.87,1405,926.51s122.26,374.79,122.26,374.79-4.65,3.72-15,4.85c-9.65,1-30.91-4.63-30.91-4.63s-108.23-154.44-115.85-193.35-5.76-73.62-23.12-74.55-233.74,26.31-266.47-31.35-5.67-114.74-5.67-114.74Z"/><path class="cls-13" d="M1226.88,719.72c-17,42.93-57.9,112.9-68.48,115.55-8.92,2.23-52.53-7.72-88-19.81-20.73-7.08-38.65-14.9-45.18-21.42-17.67-17.68-75.84-121.5-75.84-121.5s54.63-6.92,80.55,8.39,88.37,86,97.79,83.65,54.2-81.29,71.87-88.36c0,0,27.1-5.89,34.17,13C1235.58,693.92,1232.59,705.29,1226.88,719.72Z"/><path class="cls-10" d="M1386.93,1400.77c-1.15,12.5,16.25,15.54,36.4,16.54s14.07,5.13,41.69,10.13,38.68-2.55,40.68-6.28c1.78-3.31-11.06-8.49-24.74-14.34-1.73-.73-3.45-1.49-5.17-2.24-15.41-6.77-24-20.59-36.06-33.39-11.37-12.13-22.17-51-22.17-51l-37.53-8s10.54,35,14.2,49.88c2.15,8.78-1,18.59-3.85,26.06C1388.87,1392.2,1387.33,1396.36,1386.93,1400.77Z"/><path class="cls-11" d="M1423.33,1417.31c20.16,1,14.07,5.13,41.69,10.13s38.68-2.55,40.68-6.28c1.78-3.31-11.06-8.49-24.74-14.34l-.22.23a78.68,78.68,0,0,1-41.83.5c-18.27-5-35.94-15.88-48.53-19.41-1.51,4.06-3.05,8.22-3.45,12.63C1385.78,1413.27,1403.18,1416.31,1423.33,1417.31Z"/><path class="cls-14" d="M1226.88,719.72c-17,42.93-57.9,112.9-68.48,115.55-8.92,2.23-52.53-7.72-88-19.81-14.66-12.52-23.66-23.33-25.14-25.53,1.17.43,83.76,31.75,100.14,24.73C1160.28,808.29,1202.29,736.6,1226.88,719.72Z"/><path class="cls-10" d="M956.78,684.75c.27,0-19.08,19-37.81,19.54-17.62.54-34.69-17.31-34.48-17.43,6.47-3.47,5.56-13.54-7-54.17l3.3-.34,55.52-5.62s3.85,16.84,8.55,32.38C948.81,672.15,953.37,684.27,956.78,684.75Z"/><path class="cls-15" d="M936.31,626.73s3.85,16.84,8.55,32.38c-29.55,8.12-53.2-13.88-64.07-26.76Z"/><path class="cls-11" d="M1059.77,931.1s221.55,10.49,267.32,41.92,107.57,379.27,107.57,379.27-4.79,3.54-15.2,4.26c-9.69.67-30.71-5.83-30.71-5.83s-102.13-158.53-108.23-197.7-2.9-73.8-20.21-75.4-234.58,17.19-265-41.7S1059.77,931.1,1059.77,931.1Z"/><path class="cls-9" d="M873.64,628.3s-22.77-19.57-32.79-39.19c-7.15-14-16.37-71.21,41.21-80.15a78.37,78.37,0,0,1,34.68,2.25c14.44,4.44,37.06,16.62,32.37,70.43L949,599.36Z"/><path class="cls-13" d="M1061,950c-1.94,0-4.68-.12-7.88-.37-12.95-1-33.59-3.76-40.81-5.91-61-18.22-119.53-40.69-144.47-119.61a242,242,0,0,1-7.52-31.2l9.51-36.24,18.54-76.5s22.81,12.19,44,7.49c10.85-2.41,17-15.07,17-15.07s114.73,44.92,153.61,138,52.23,78.94,64,99S1126.59,949.56,1061,950Z"/><path class="cls-10" d="M950.59,638.44s-69,22.31-82.21-20.86-31-69.36,12.43-85.43,57.12-2.23,65.05,11.1S968.19,631.52,950.59,638.44Z"/><path class="cls-9" d="M912.06,521.45s-3.51,56.46-30.35,72.85-41.86,12.44-41.86,12.44,16.92-24.58,12.09-57C851.94,549.76,890.38,501.71,912.06,521.45Z"/><path class="cls-9" d="M908.61,527s17.63,7,24.44,16.92S948.33,576,954.7,573.24c0,0,3.78-38.8-18.24-53.37C913.11,504.42,908.61,527,908.61,527Z"/><path class="cls-14" d="M1053.12,949.58c-12.95-1-33.59-3.76-40.81-5.91-61-18.22-119.53-40.69-144.47-119.61-.1-.58-.2-1.16-.31-1.75l8.46-6.65a60.48,60.48,0,0,1,60.9-8.17C985,827.83,1051.19,864.69,1053.12,949.58Z"/><path class="cls-13" d="M888.37,680.12s-71.25,10.71-83,55.42-22.25,190.81-11.64,202.35S836,936,843,930.27s43.59-154.34,43.59-154.34S904.49,708.78,888.37,680.12Z"/><path class="cls-10" d="M996.86,885.44s41-7.93,45.61-6,30.41,25.12,27.77,29.75-13.23,7.93-25.13,4-37.68-6-42.3-11.9S996.86,885.44,996.86,885.44Z"/><path class="cls-13" d="M1007.87,879.71s-160-2.64-198.32,22.48c0,0-22.48,23.13-15.86,35.7s27.1,10.57,36.35,9.91,171.22-37.68,171.22-37.68S1019.77,896.24,1007.87,879.71Z"/><path class="cls-4" d="M871.71,924s182-56.55,227.78-2.75c40.06,47.13,148.69,233.68,154.41,344.1,5.55,107.29-98.88,177.83-206.31,177.83H856.78Z"/><path class="cls-4" d="M1145.51,1265.38C1139.79,1155,1062.32,979,1034.17,934.92c-41.06-64.34-218.27-2.54-296.06,28.58C693.88,832.07,650.2,703,626.48,633.07a79,79,0,0,0-74.87-53.67s-126.5-18.69-146.07,149.84C342.88,1268.7,393.23,1442.66,618,1444c28.19.17,83.29-.33,130.38-.86v.07H939.2C1046.63,1443.21,1151.06,1372.67,1145.51,1265.38Z"/><path class="cls-5" d="M1145.51,1265c-5.73-110.75-83.18-287.2-111.34-331.42-35-54.94-168.56-18.2-255.51,13.19-15.2,5.49-29,10.82-40.54,15.46C693.88,830.45,650.2,701,626.49,630.86A79.08,79.08,0,0,0,551.61,577s-12.52.12-29.73,1.69h0c-27.73,2.53-67.6,8.84-86.71,24.52-13,10.63-21.87,57.3-29.6,124.07-18.27,157.73-26.93,284.32-24.47,384.53,1.26,51.4,5.46,95.86,12.79,134,5.12,26.74,11.78,50.4,20.06,71.18,35.87,90.17,102,126.5,204.08,127.11,11.87.07,28.5,0,47.31-.09,25.86-.17,55.81-.48,83.07-.78v.08H939.2C1046.63,1443.38,1151.07,1372.62,1145.51,1265Z"/><path class="cls-4" d="M736,954.89l-86.28,33.88c-25.17-92.61-99.37-365.95-105.23-390.7-3.14-13.3-12.85-18.11-22.63-19.34,17.21-1.57,29.74-1.69,29.74-1.69a79.06,79.06,0,0,1,74.87,53.67C649.83,699.57,692.5,825.64,736,954.89Z"/><path class="cls-7" d="M794.62,1042.76c-13.45-40.31-97.28-27.72-97.28-27.72s-56.92,70.57-73.48,72.25,34.15-68,34.15-68c-32.08-2.52-113.85,29.39-113.85,29.39s5.19,82.33-11.38,80.66,0-73.09,0-73.09c-31,7.56-60,37-60,37-36.21,47.88,41.41,83.17,41.41,83.17s1,28.55-20.71,61.32c0,0-27.32,33.68-18.55,77.24h-24c4.61-31.35-14.68-55.13-14.68-55.13-16.48-24.86-15.69-46.52-15.69-46.52s58.87-26.77,31.4-63.09c0,0-22-22.32-45.54-28,0,0,12.56,54.16,0,55.44s-8.64-61.18-8.64-61.18-6.72-2.63-16.63-6.09c1.26,51.25,5.45,95.57,12.78,133.64,7.28-2.92,12.87-6.74,15.64-11.56.47-.84.93-1.63,1.36-2.39a9.58,9.58,0,0,1-1.36,2.39c5.64,2.67,14.11,15.43,20,25.21.84,1.68,2.17,4,4.12,7.08.8,1.43,1.45,2.6,1.89,3.41,6.78,13.77,7,33.82,6.3,46.83h-87.3v3.78h5.08c1.86,50.21,40.64,92.86,95.05,110.69H376.16c-10.37,0-18.77,6.82-18.77,15.24H665.68a12.53,12.53,0,0,0-.38-3.07c-1.74-6.94-9.3-12.17-18.38-12.17H568.46c54.41-17.83,93.18-60.48,95-110.69h3.54v-3.78H505c3.75-6.67,8.32-13.19,13.68-18l2.45-2c2.65-2,4.5-3.49,5.76-4.61,8.15-6.36,19.44-14.48,24.87-15.26a6.9,6.9,0,0,1-.22-2.22c.07.72.15,1.45.22,2.22,1.86,17.71,44.21,33.19,70.26,36.38s18-5.52,9-18.41-37.38-18.65-43.86-24.59,6.91-6,22.62-.13,17.84,21.34,43,31.12,63.07-24.12,63.07-24.12c-20.06-.83-48.72-18.52-47.68-23.93s48.64,9.34,56.78,10,26.65-7.5,29.51-34.12-50.86-34-50.86-34-12.4,7.48-26.39,15c-2.76-2.91-7.25-6.13-12.49-9.72,4.62-3.33,8.78-6.18,11.36-7.93a125,125,0,0,0,17.1,2.51c43.47,3.35,76.59-63,76.59-63-30,7.56-83.83-5.88-85.91-14.28s77.62-7.57,90-10.09S808.08,1083.09,794.62,1042.76Zm-266,158.77a12.15,12.15,0,0,1-1.81-3.14Zm-7.8,88.92a82,82,0,0,0-24.2,24.46H486.35c-1.27-16.68-1.77-46.45,8-66.31.58-1.07,1.42-2.59,2.48-4.46q1.94-3.09,3.28-5.41c.9-1.54,1.61-2.85,2.16-4,7.75-12.9,18.92-29.71,26.37-33.23a28.38,28.38,0,0,0,8.17,8.63c-14.13,21.39,13.08,47.17,13.08,47.17S542.77,1274.68,520.84,1290.45Zm114.31-105.77c-22.25-5-49.09-4.06-58.9-8.33-13.46-5.9,6.2-11.77,33.11-10.09,18.11,1.13,30.13,11.38,49.29,19C651.19,1184.72,643,1184.59,635.15,1184.68Z"/><path class="cls-2" d="M501.3,1213.9s-37-43.18-2.28-70.61c0,0,25.37-15.36,46.06-14.11,0,0-29.32,49.15-19.83,54S554,1126.09,554,1126.09s57.74-5.6,76.31,3.33c0,0-49.36,40.39-39,42.8S655,1135,655,1135s53.73,9.14,50.87,41.92-21.38,42.91-29.52,42-55.74-19-56.78-12.38S647.21,1235,667.27,1236c0,0-37.88,41.78-63.06,29.72s-27.33-31.17-43-38.34-29.1-7.15-22.62.16,34.89,14.42,43.86,30.3,17,26.58-9,22.66-68.39-23-70.25-44.81Z"/><path class="cls-2" d="M679.49,1177.79s-146-5.63-178.19,36.11c0,0-7.13,21.35-29.06,40.79,0,0-31.33,23.17-33.51,64.57l5.69.51s9-38.56,25.39-56.79c.64-.66,1.57-1.61,2.71-2.76,2.66-2.46,4.51-4.31,5.76-5.68,8.16-7.84,19.44-17.84,24.88-18.81C503.16,1235.73,489,1184,679.49,1177.79Z"/><path class="cls-3" d="M371.88,1159.59s58.88-33,31.4-77.72c0,0-22-27.48-45.54-34.55,0,0,12.57,66.74,0,68.31s-8.63-75.38-8.63-75.38-62-29.83-86.37-27.48c0,0,38.47,65.17,25.91,63.6s-55.74-67.52-55.74-67.52-63.6-11.78-73.8,25.91,6.28,56.53,15.7,58.88,69.87,1.57,68.3,9.42-42.39,20.42-65.16,13.35c0,0,25.12,62,58.1,58.89s43.18-23.56,63.59-25.13,35.33,3.93,25.13,9.42-44.75,1.81-61.24,15.82-29.84,22.65.78,28.94,85.58,2.35,96.57-21.2Z"/><path class="cls-2" d="M387.58,1216.91c-16.49-30.62-15.7-57.32-15.7-57.32-18.85-59.67-183.72-113.06-183.72-113.06,209.63,84.8,172.72,136.62,172.72,136.62,5.65,3.29,14.12,19,20,31.06.84,2,2.17,4.89,4.13,8.75h0c.79,1.74,1.43,3.17,1.87,4.16,10.8,27,5.08,73.64,5.08,73.64l6.54,1.76C413,1255.52,387.58,1216.91,387.58,1216.91Z"/><path class="cls-3" d="M465.56,1114.12s-77.62-43.47-41.4-102.46c0,0,29-36.23,60-45.54,0,0-16.56,88,0,90s11.38-99.36,11.38-99.36,81.76-39.32,113.84-36.22c0,0-50.71,85.9-34.15,83.83s73.48-89,73.48-89,83.83-15.53,97.29,34.15-8.28,74.52-20.7,77.62-92.11,2.07-90,12.42,55.89,26.91,85.9,17.59c0,0-33.12,81.76-76.59,77.62s-56.92-31-83.83-33.11-46.57,5.17-33.12,12.42,59,2.37,80.73,20.85,39.33,29.86-1,38.14-112.8,3.1-127.29-27.95Z"/><path class="cls-2" d="M707.73,965.08s-217.33,70.38-242.17,149c0,0,1,35.18-20.7,75.55,0,0-33.52,50.89-14.41,112.85l8.62-2.31s-7.54-61.48,6.69-97.08c.58-1.31,1.43-3.19,2.48-5.49,2.59-5.08,4.34-8.82,5.44-11.53,7.75-15.89,18.92-36.6,26.37-40.95C480.05,1145.16,431.4,1076.86,707.73,965.08Z"/><path class="cls-13" d="M310.89,1284.83a152,152,0,0,0,304.1,0Z"/><path class="cls-16" d="M500.36,1435.71a152.11,152.11,0,0,1-170.94-150.88H367.2A152.07,152.07,0,0,0,500.36,1435.71Z"/><path class="cls-14" d="M598.33,1425.86H327.55a18.75,18.75,0,0,0-18.76,18.75h308.3A18.75,18.75,0,0,0,598.33,1425.86Z"/><rect class="cls-14" x="305.89" y="1284.83" width="312.55" height="4.66"/><path class="cls-4" d="M2296.42,991v146c0,25.65-7.25,46.41-16.21,46.41H1994.28c-9,0-16.21-20.76-16.21-46.41V991c0-25.66,25.27-49.42,99.39-48.59l202.75,2.18C2289.17,944.58,2296.42,965.33,2296.42,991Z"/><path class="cls-6" d="M2334.3,991v146c0,25.65-7.25,46.41-16.21,46.41H2032.16c-9,0-16.21-20.76-16.21-46.41V991c0-25.66,26.92-50.24,68.1-49.42l234,3C2327.05,944.58,2334.3,965.33,2334.3,991Z"/><path class="cls-4" d="M2263.8,815.87c3.89-8.61-2-368,85.68-363.72s251.22,8.6,251.22,8.6,74,6.46,29.21,182.94-35,456.26-35,456.26H2271.59Z"/><path class="cls-6" d="M2567.56,643.72c-5.4,21.08-9.88,43.61-13.83,66.94-15.82,94.47-20.69,202.12-21.88,280.26-.92,64.57.66,109,.66,109H2209.29l-7.77-284.09c3.82-8.56-2-368,85.64-363.67,44.8,2.24,109.5,4.35,162,6.06,6.58.13,13,.4,19.23.53,40.59,1.19,70.1,2,70.1,2S2612.36,467.15,2567.56,643.72Z"/><path class="cls-5" d="M2364.54,1364.69V1175.11a14.91,14.91,0,0,0-14.76-14.76h-.13a13.77,13.77,0,0,0-7.25,2.1,14.54,14.54,0,0,0-7.51,12.66V1365l-1.71.29a110,110,0,0,0-88.55,78.4h211.75A110.26,110.26,0,0,0,2364.54,1364.69Z"/><path class="cls-7" d="M2553.46,705c-7.9-121.23-71.28-224.92-85.12-246.27L2329.46,445s-107.06,70.83-80.7,343.42c13.58,140.56,71.55,48.5,124.51-73.66L2362.4,979.46s129.26,8.82,169.45,11.46c1.19-78.14,6.06-185.79,21.88-280.26C2553.73,708.81,2553.59,706.83,2553.46,705Z"/><path class="cls-4" d="M2342.4,1162.45a14.54,14.54,0,0,0-7.51,12.66v232.3a14.22,14.22,0,0,0,7.51,12.65,14.69,14.69,0,0,0,7.38-12.65v-232.3A14.69,14.69,0,0,0,2342.4,1162.45Z"/><path class="cls-4" d="M2333.18,1365.24a110,110,0,0,0-88.55,78.4h177.1A109.84,109.84,0,0,0,2333.18,1365.24Z"/><path class="cls-4" d="M2599.48,1116.2l-7.31,42c0,9,.06,25.25-8.9,25.25H2079.93a16.2,16.2,0,0,1-16.21-16.21v-51a16.2,16.2,0,0,1,16.21-16.2h503.34A16.2,16.2,0,0,1,2599.48,1116.2Z"/><path class="cls-17" d="M1994,1413.1c.92,4.48,1.84,9.09,1.58,13.84a10.27,10.27,0,0,1-4.88,6.19l-2.37,4.48c-2.5,1.19-8.57,2.11-16.34,2.9l-.13-3.69a25.61,25.61,0,0,0-3.16.13v-.13a92.79,92.79,0,0,0-34.66,6.45c-.13,0-.26.14-.39.14l-7.25.39h-34c-16.34-2.37-22.79-9-24-12.25,0-.92,12.26-7,22.4-9.88a4.47,4.47,0,0,1,.79-.14c1.45-.52,4.22-1.58,4.88-1.71,1.84-.66,4-1.19,5.8-1.71,17-5,28.46-16.34,41.9-28.86,15.41-14.36,36.36-78.4,33.6-79.58l34.65,4.47s-27.8,55.61-25.56,72.87c.92,7.64,3.69,14.1,5.53,20.69.14.26.14.66.27.92a23,23,0,0,1,.92,2.77C1993.75,1412.05,1993.88,1412.57,1994,1413.1Z"/><path class="cls-18" d="M2430.11,932.21l-149-6.1s-226.68,14.64-245.9,47.59l-85.49,399.82s4.74,6.38,20.79,9.13c8.5,1.46,27-2.75,27-2.75s110.7-141.55,124.93-230.42c11.89-74.27,16.59-82,57.31-80.49s165.66,11.38,225-.12S2430.11,932.21,2430.11,932.21Z"/><path class="cls-19" d="M1996.25,1423.25a8.49,8.49,0,0,1-.65,3.69,10.27,10.27,0,0,1-4.88,6.19,3,3,0,0,1-.79.53h-.13c-.13.13-.27.13-.4.26-4.34,2.64-10.14,2.64-17.52,2.9h-3.16a92.79,92.79,0,0,0-34.66,6.45c-.13,0-.26.14-.39.14-.4.13-.66.26-1.06.39H1875c-7.91-3.16-9.49-8.17-10.28-10-.66-1.45,1.19-3,4.75-4.75a3.45,3.45,0,0,0,.92-.52c5-2.24,12.52-4.61,20.55-7.25.14.13.4.13.66.26,5.41,1.85,24.25,7.78,46.38,3.56,18.45-3.56,36.77-12.25,50.87-16.47,1.18-.26,2.37-.66,3.55-.92.27-.13.53-.13.79-.26a7.84,7.84,0,0,1,.53,1.71A50.16,50.16,0,0,1,1996.25,1423.25Z"/><polygon class="cls-19" points="1991.51 1431.68 1990.72 1433.13 1988.35 1437.61 1985.06 1443.8 1968.85 1443.8 1968.85 1440.51 1968.72 1436.95 1968.72 1435.37 1990.59 1431.81 1991.51 1431.68"/><path class="cls-10" d="M2044.52,1413.1c.93,4.48,1.85,9.09,1.59,13.84a10.27,10.27,0,0,1-4.88,6.19l-2.37,4.48c-2.5,1.19-8.57,2.11-16.34,2.9l-.13-3.69a25.61,25.61,0,0,0-3.16.13v-.13a92.79,92.79,0,0,0-34.66,6.45c-.13,0-.26.14-.39.14l-7.25.39h-34c-16.34-2.37-22.79-9-24-12.25,0-.92,12.26-7,22.4-9.88a4.47,4.47,0,0,1,.79-.14c1.45-.52,4.22-1.58,4.88-1.71,1.84-.66,4-1.19,5.8-1.71,17-5,28.46-16.34,41.9-28.86,15.41-14.36,36.36-78.4,33.6-79.58l34.65,4.47s-27.8,55.61-25.56,72.87c.92,7.64,3.69,14.1,5.53,20.69.14.26.14.66.27.92a23,23,0,0,1,.92,2.77C2044.26,1412.05,2044.39,1412.57,2044.52,1413.1Z"/><path class="cls-20" d="M2339.7,562.4l-11.6,46-60.92,240.68c-2.32,3.63-21.72,11.3-43.17,18.5-25.55,8.54-54.09,16.59-59.48,16.12-9.88-.8-15.35-21.44-12.53-27.26,1.82-3.84,34.39-21.12,59.86-36.62,14.21-8.64,26.2-16.71,29.52-21.51,6-8.91,20.87-90.86,33-150.83,6.19-30.76,11.71-55.77,14.91-62.32,8.11-17.11,39.7-21.73,48.25-22.61A20.49,20.49,0,0,1,2339.7,562.4Z"/><path class="cls-21" d="M2469.54,932.34l-149-6.09s-226.68,14.64-245.91,47.59l-79,407.71s13.78,4.71,22.44,5.35c13.79,1,23.26-3.5,23.26-3.5s106.27-144.91,120.5-233.78c11.89-74.27,16.6-82,57.32-80.49s165.66,11.38,225-.12S2469.54,932.34,2469.54,932.34Z"/><path class="cls-20" d="M2046.77,1423.25a8.49,8.49,0,0,1-.66,3.69,10.27,10.27,0,0,1-4.88,6.19,3,3,0,0,1-.79.53h-.13c-.13.13-.27.13-.4.26-4.35,2.64-10.14,2.64-17.52,2.9h-3.16a92.79,92.79,0,0,0-34.66,6.45c-.13,0-.26.14-.39.14-.4.13-.66.26-1.06.39h-57.58c-7.91-3.16-9.49-8.17-10.28-10-.66-1.45,1.19-3,4.75-4.75a3.3,3.3,0,0,0,.92-.52c5-2.24,12.52-4.61,20.55-7.25.14.13.4.13.66.26,5.41,1.85,24.25,7.78,46.38,3.56,18.45-3.56,36.77-12.25,50.87-16.47,1.18-.26,2.37-.66,3.55-.92.27-.13.53-.13.79-.26a7.84,7.84,0,0,1,.53,1.71A50.17,50.17,0,0,1,2046.77,1423.25Z"/><polygon class="cls-20" points="2042.02 1431.68 2041.23 1433.13 2038.86 1437.61 2035.57 1443.8 2019.36 1443.8 2019.36 1440.51 2019.23 1436.95 2019.23 1435.37 2041.1 1431.81 2042.02 1431.68"/><path class="cls-22" d="M2414.25,497.7c71.48-5.44,85.46-152.14.42-134.27,0,0-11.92-7.79-17.81-7.87,0,0,4.55,1.66,6.54,4.52-9.19-2.06-23.44-5.39-34.66,1C2253.75,426.29,2386.55,499.8,2414.25,497.7Z"/><path class="cls-10" d="M2333.59,575.8c-.28.08,23.51,17.78,43.93,15.61,19.19-2,35.07-23.93,34.82-24-7.53-2.81-8-13.87-.42-59.82l-3.64.13-61.07,2.12s-1.68,18.84-4.48,36.39C2340.38,561,2337.22,574.78,2333.59,575.8Z"/><path class="cls-21" d="M2328.1,608.44l-60.92,240.68c-2.32,3.63-21.72,11.3-43.17,18.5a152.29,152.29,0,0,1-5.16-15.12,218.74,218.74,0,0,1-7-32.64c14.21-8.64,26.2-16.71,29.52-21.51,6-8.91,20.87-90.86,33-150.83,27.31-26.81,53.07-40,53.07-40Z"/><path class="cls-17" d="M2347.21,509.82s-1.68,18.84-4.48,36.39c33.27,4.44,55.67-22.93,65.55-38.51Z"/><path class="cls-22" d="M2415.44,502.24s21.8-24.6,29.77-47.37c5.68-16.26,7.22-79.69-56.58-80.86a85.74,85.74,0,0,0-37.29,7.58c-15,7-37.76,23.52-24.69,81.21l2.71,19.21Z"/><path class="cls-10" d="M2333.45,524.64s78.14,14,86.11-34.8S2443,410,2393.42,399s-62.31,6-68.93,21.67S2313.33,519.74,2333.45,524.64Z"/><path class="cls-22" d="M2357.93,392s12.17,60.73,43.72,74.53,47.26,7.3,47.26,7.3-22-24.15-21.56-60C2427.35,413.82,2378.53,367.38,2357.93,392Z"/><path class="cls-22" d="M2362.5,397.52s-18.1,10.18-24,22-11.82,37.09-19.14,35c0,0-9.85-41.54,11.88-60.61C2354.27,373.68,2362.5,397.52,2362.5,397.52Z"/><path class="cls-20" d="M2475.69,1006.4c-6.21,11.14-19.71,12-36.67,7.14-8.17-2.26-17.05-6-26.36-10.28a24.83,24.83,0,0,0-2.72-1.38c-27.46-13.4-58.09-33.58-82-48.94-50.18-32.16-53.51-14.15-68.38-31.91,0,0,15.29-16.07-4.32-203.87-5.57-53.76,84.49-154.76,84.49-154.76s.6,33.34,72.61,5c2.55-.92,22.24,41.51,39.42,92.76q4.21,12.29,8,24.91c12,39.72,20.87,81.21,18.46,110.06a70.32,70.32,0,0,1-3.62,18.23l-.64,1.5C2449.19,874.22,2493.44,974.3,2475.69,1006.4Z"/><polygon class="cls-23" points="2227.94 771.75 2095.22 762.26 2152.06 917 2276.34 929.89 2227.94 771.75"/><polygon class="cls-24" points="2226.76 773.42 2094.05 763.93 2150.88 918.67 2275.16 931.56 2226.76 773.42"/><path class="cls-25" d="M2214.82,770.81s3.19-20-8.11-20.46-17.91,19.18-17.91,19.18Z"/><path class="cls-26" d="M2193.58,789c3.15,14.27,21.41,37.61,20.31,49.42l-84.82-1.1s.55-5.49-17.57-44.47c-7.45-16,1.37-45,9-45.65l86.17,3.16S2187.43,761.16,2193.58,789Z"/><polygon class="cls-23" points="2095.22 762.26 2094.05 763.93 2096.97 764.12 2096.71 763.08 2095.22 762.26"/><polygon class="cls-23" points="2275.16 931.56 2276.34 929.89 2274.1 928.15 2275.16 931.56"/><path class="cls-21" d="M2475.69,1006.4c-6.21,11.14-19.71,12-36.67,7.14-8.17-2.26-17.05-6-26.36-10.28-33-21.37-68.29-55.53-88.11-110.27C2280,770,2451.28,681,2451.28,681l8.43,4c12,39.72,20.87,81.21,18.46,110.06a70.32,70.32,0,0,1-3.62,18.23l-.64,1.5C2449.19,874.22,2493.44,974.3,2475.69,1006.4Z"/><rect class="cls-5" x="2298.39" y="796.71" width="6.59" height="88.94" transform="translate(912 -1177.26) rotate(35.38)"/><polygon class="cls-4" points="2273.25 875.54 2272.84 882 2278.63 879.36 2273.25 875.54"/><path class="cls-10" d="M2341.93,844.28s-23.23-9.65-35-6.93-35.76,10.59-34.71,17.06,26.73,14,38.78,9.65,19,4.76,33.22,2.44S2341.93,844.28,2341.93,844.28Z"/><path class="cls-20" d="M2412.35,567.39s73.14,12.42,82.25,31.7,3.06,221.3-2.63,242.63-123.83,31.37-159.22,30.08c0,0-5.56-24,1.06-37.37s94.06-27.86,101.24-37.82-14.36-132.75-11.57-156.77S2412.35,567.39,2412.35,567.39Z"/><path class="cls-10" d="M2125.72,852s24.16-2.34,20.89,7.56-12.39,14.68-12.39,14.68S2115.54,860.78,2125.72,852Z"/><path class="cls-4" d="M2561.6,991v146c0,25.65-7.25,46.41-16.21,46.41H2259.46c-9,0-16.21-20.76-16.21-46.41V991c0-25.66,22.8-51.06,101-46.41h201.11C2554.35,944.58,2561.6,965.33,2561.6,991Z"/><path class="cls-8" d="M2599.48,991v146c0,25.65-7.25,46.41-16.21,46.41H2297.34c-9,0-16.21-20.76-16.21-46.41V991c0-25.66,24.45-48.59,82.1-46.41l204.23-1.36C2599.58,943.22,2599.48,965.33,2599.48,991Z"/><path class="cls-14" d="M2900.25,1055.56H2528.49a16.12,16.12,0,0,0-16.07,16.08v5.76a16.12,16.12,0,0,0,16.07,16.08H2700l9.62,294.3c-47.42,1.49-86.59,25-96.9,56.16h203.41c-10.24-30.92-48.87-54.28-95.78-56.11l8.52-294.35h171.43a16.13,16.13,0,0,0,16.08-16.08v-5.76A16.13,16.13,0,0,0,2900.25,1055.56Z"/><path class="cls-13" d="M2691,1024.64c-2.37-1.46-7-.89-10.31-.19v-4.84a25.12,25.12,0,0,0-.21-3.15h-50.07a25.13,25.13,0,0,0-.2,3.15v9.83a25.21,25.21,0,0,0,44.16,16.65h0s11.91-2.93,15.65-7.37S2695,1027.09,2691,1024.64Zm-2.65,9.08c-1.26,3.27-6.94,5-9.74,5.71a24.89,24.89,0,0,0,2-8.31c1.73-2.36,4.46-3.75,6.46-3.39C2688.88,1028.06,2690,1029.59,2688.36,1033.72Z"/><path class="cls-27" d="M2634.32,1019.61v9.83a25.31,25.31,0,0,0,25.23,25.24,23.63,23.63,0,0,0,3.39-.24,25.31,25.31,0,0,1-21.84-25v-9.83a23.73,23.73,0,0,1,.21-3.16h-6.79A25.53,25.53,0,0,0,2634.32,1019.61Z"/><rect class="cls-13" x="2645.14" y="1052.48" width="20.6" height="3.08"/><path class="cls-13" d="M2823.6,1024.64c-2.37-1.46-7-.89-10.31-.19v-4.84a25.12,25.12,0,0,0-.21-3.15H2763a25.13,25.13,0,0,0-.2,3.15v9.83a25.21,25.21,0,0,0,44.16,16.65h0s11.91-2.93,15.65-7.37S2827.57,1027.09,2823.6,1024.64Zm-2.65,9.08c-1.26,3.27-6.94,5-9.74,5.71a24.89,24.89,0,0,0,2-8.31c1.73-2.36,4.46-3.75,6.46-3.39C2821.47,1028.06,2822.55,1029.59,2821,1033.72Z"/><path class="cls-27" d="M2766.91,1019.61v9.83a25.31,25.31,0,0,0,25.23,25.24,23.63,23.63,0,0,0,3.39-.24,25.31,25.31,0,0,1-21.84-25v-9.83a23.73,23.73,0,0,1,.21-3.16h-6.79A25.53,25.53,0,0,0,2766.91,1019.61Z"/><rect class="cls-13" x="2777.73" y="1052.48" width="20.6" height="3.08"/><rect class="cls-28" y="1443.8" width="2970.62" height="6.66" rx="2.97"/></g></g></svg>