<svg width="3023" height="1451" viewBox="0 0 3023 1451" fill="none" xmlns="http://www.w3.org/2000/svg">
<g id="Recurso 1 1" clip-path="url(#clip0_0_1)">
<g id="Capa 2">
<g id="&#208;&#161;&#208;&#187;&#208;&#190;&#208;&#185; 2" filter="url(#filter0_d_0_1)">
<path id="Vector" d="M2966.66 1257.52C2920.95 1361.4 2831.98 1407.25 2746.92 1426.06H248.353C12.493 1337.94 -113.017 697.149 236.743 541.269C428.403 455.839 560.423 440.999 597.743 306.399C754.443 -259.751 1316.32 93.3286 1524.27 33.8986C2263.84 -177.491 2152.87 858.249 2613.7 764.359C2825.14 721.279 3100.89 952.529 2966.66 1257.52Z" fill="#EBF2F9"/>
<path id="Vector_2" d="M1715.89 946.459C1715.89 946.459 1633.74 1007.55 1617.72 1003.85C1601.7 1000.15 1677.72 937.899 1677.72 937.899C1649.1 924.139 1560.13 932.769 1560.13 932.769C1560.13 932.769 1530.49 1028.34 1515.88 1020.77C1501.27 1013.2 1546.43 937.488 1546.43 937.488C1514.56 935.568 1475.43 959.238 1475.43 959.238C1421.9 1001.51 1478.94 1068.06 1478.94 1068.06C1478.94 1068.06 1467.94 1100.96 1434.16 1130.91C1434.16 1130.91 1385.88 1166.62 1382.53 1230.41L1391.29 1231.19C1391.29 1231.19 1405.18 1171.77 1430.42 1143.67C1431.42 1142.67 1432.82 1141.21 1434.57 1139.44C1438.69 1135.62 1441.57 1132.75 1443.52 1130.62C1456.08 1118.55 1473.44 1103.18 1481.8 1101.69C1481.5 1100.31 1481.38 1098.9 1481.44 1097.49C1481.55 1098.83 1481.67 1100.22 1481.8 1101.69C1484.66 1135.33 1549.92 1164.69 1590.06 1170.69C1630.2 1176.69 1617.8 1160.23 1603.96 1135.77C1590.12 1111.31 1546.36 1100.35 1536.37 1089.08C1526.38 1077.81 1547.03 1077.79 1571.22 1088.84C1595.41 1099.89 1598.72 1129.34 1637.52 1147.92C1676.32 1166.5 1734.7 1102.12 1734.7 1102.12C1703.78 1100.55 1659.62 1066.96 1661.22 1056.69C1662.82 1046.42 1736.22 1074.42 1748.72 1075.76C1761.22 1077.1 1789.79 1061.5 1794.21 1010.99C1798.63 960.478 1715.89 946.459 1715.89 946.459Z" fill="#82B378"/>
<path id="Vector_3" d="M1279.57 984.389C1279.57 984.389 1370.31 933.579 1327.96 864.609C1327.96 864.609 1294.09 822.269 1257.79 811.379C1257.79 811.379 1277.15 914.219 1257.79 916.639C1238.43 919.059 1244.48 800.489 1244.48 800.489C1244.48 800.489 1148.9 754.489 1111.39 758.139C1111.39 758.139 1170.68 858.559 1151.32 856.139C1131.96 853.719 1065.42 752.139 1065.42 752.139C1065.42 752.139 967.423 733.939 951.743 791.999C936.063 850.059 961.423 879.109 975.933 882.739C990.443 886.369 1083.62 885.159 1081.2 897.259C1078.78 909.359 1015.86 928.719 980.773 917.829C980.773 917.829 1019.49 1013.41 1070.31 1008.57C1121.13 1003.73 1136.85 972.269 1168.31 969.849C1199.77 967.429 1222.75 975.849 1207.02 984.369C1191.29 992.889 1138.02 987.149 1112.65 1008.75C1087.28 1030.35 1066.65 1043.66 1113.86 1053.34C1161.07 1063.02 1245.74 1056.97 1262.68 1020.67L1279.57 984.389Z" fill="#A8D29F"/>
<path id="Vector_4" d="M1303.74 1072.72C1278.33 1025.53 1279.54 984.388 1279.54 984.388C1250.54 892.438 996.423 810.168 996.423 810.168C1319.42 940.838 1262.6 1020.69 1262.6 1020.69C1271.31 1025.77 1284.36 1049.98 1293.42 1068.56C1294.71 1071.72 1296.75 1076.1 1299.79 1082.04C1301.02 1084.73 1302 1086.92 1302.68 1088.46C1319.31 1130.07 1310.5 1201.94 1310.5 1201.94L1320.58 1204.65C1342.95 1132.22 1303.74 1072.72 1303.74 1072.72Z" fill="#82B378"/>
<path id="Vector_5" d="M1423.93 914.309C1423.93 914.309 1304.32 847.308 1360.14 756.418C1360.14 756.418 1404.79 700.598 1452.64 686.248C1452.64 686.248 1427.12 821.808 1452.64 824.998C1478.16 828.188 1470.18 671.889 1470.18 671.889C1470.18 671.889 1596.18 611.288 1645.62 616.068C1645.62 616.068 1567.47 748.449 1592.99 745.258C1618.51 742.068 1706.22 608.098 1706.22 608.098C1706.22 608.098 1835.41 584.168 1856.14 660.728C1876.87 737.288 1843.38 775.559 1824.24 780.339C1805.1 785.119 1682.3 783.528 1685.49 799.478C1688.68 815.428 1771.61 840.949 1817.87 826.589C1817.87 826.589 1766.87 952.589 1699.87 946.209C1632.87 939.829 1612.15 898.359 1570.68 895.209C1529.21 892.059 1498.91 903.208 1519.68 914.348C1540.45 925.488 1610.59 918.008 1644.08 946.478C1677.57 974.948 1704.69 992.479 1642.49 1005.26C1580.29 1018.04 1468.65 1010.04 1446.32 962.199L1423.93 914.309Z" fill="#A8D29F"/>
<path id="Vector_6" d="M1797.13 684.648C1797.13 684.648 1462.21 793.098 1423.93 914.308C1423.93 914.308 1425.53 968.538 1392.03 1030.74C1392.03 1030.74 1340.38 1109.17 1369.83 1204.65L1383.12 1201.08C1383.12 1201.08 1371.5 1106.35 1393.43 1051.49C1394.32 1049.49 1395.62 1046.57 1397.24 1043.03C1401.24 1035.2 1403.94 1029.43 1405.64 1025.26C1417.58 1000.77 1434.78 968.848 1446.26 962.158C1446.26 962.158 1371.3 856.898 1797.13 684.648Z" fill="#82B378"/>
<path id="Vector_7" d="M1224.53 902.999C1224.53 902.999 1422.53 846.449 1472.22 900.249C1515.78 947.379 1633.91 1133.93 1640.13 1244.35C1646.13 1351.64 1532.61 1422.18 1415.79 1422.18H1208.3L1224.53 902.999Z" fill="#F1A34F"/>
<path id="Vector_8" d="M1087.51 957.999C1087.51 957.999 1367.41 830.849 1420.43 913.909C1448.58 958.009 1526.04 1133.91 1531.76 1244.37C1537.31 1351.66 1432.88 1422.2 1325.45 1422.2H1134.64L1087.51 957.999Z" fill="#D16E24"/>
<path id="Vector_9" d="M535.643 566.858C535.643 566.858 883.793 557.428 1016.69 557.728C1085.06 557.878 1083.37 609.628 1116.22 669.588C1182 789.688 1291.22 996.259 1282.55 1028.54C1270.18 1074.54 804.133 1106.3 771.143 1095.7C738.153 1085.1 535.643 566.858 535.643 566.858Z" fill="#E78B37"/>
<path id="Vector_10" opacity="0.4" d="M808.253 659.928C808.253 659.928 812.963 591.598 796.463 597.488C779.963 603.378 675.113 698.808 691.613 923.848L739.913 965.078L1108.68 903.818L808.253 659.928Z" fill="#C44F00"/>
<path id="Vector_11" d="M1277.03 936.889L1152.83 998.249C1152.83 998.249 1046.39 606.909 1039.32 577.069C1036.18 563.769 1026.47 558.959 1016.69 557.729C1033.9 556.159 1046.43 556.039 1046.43 556.039C1062.96 556.038 1079.06 561.214 1092.49 570.841C1105.92 580.467 1116 594.06 1121.3 609.709C1145.02 679.709 1188.69 808.709 1232.93 940.139C1244.5 935.509 1258.28 930.189 1273.48 924.729L1277.03 936.889Z" fill="#F1A34F"/>
<path id="Vector_12" d="M1028.43 958.079C1028.43 958.079 1429.83 922.539 1479.31 969.929C1502.31 991.929 1515.19 1091.58 1522.42 1192.02C1531.42 1317.31 1429.9 1424.53 1304.99 1422.73L869.853 1422.93L1028.43 958.079Z" fill="#DF812F"/>
<path id="Vector_13" d="M878.193 473.789C866.703 471.209 854.773 474.189 846.713 477.179C848.163 474.349 852.083 472.289 852.083 472.289C846.753 473.079 836.933 481.599 836.933 481.599C757.783 475.939 778.493 583.599 787.383 607.389C796.273 631.179 804.953 658.989 776.233 691.509C719.733 755.509 801.233 812.209 801.233 812.209C801.873 812.369 850.173 856.609 850.173 856.609C842.403 837.609 901.173 706.689 938.863 661.359C945.173 640.969 940.143 609.889 939.733 607.439C944.973 631.709 944.983 646.209 943.643 654.789C972.313 605.869 908.663 480.609 878.193 473.789Z" fill="#B5453C"/>
<path id="Vector_14" d="M1181.74 661.699C1182.92 659.929 1192.93 629.299 1203.54 629.889C1214.15 630.479 1230.63 632.249 1234.76 631.069C1238.89 629.889 1252.76 619.449 1255.08 621.939C1260.97 628.119 1247.72 647.269 1238.29 650.209C1228.86 653.149 1213.55 648.739 1210.02 652.269C1206.49 655.799 1207.02 668.469 1207.02 668.469L1181.74 661.699Z" fill="#FFB27D"/>
<path id="Vector_15" d="M1462.1 1339.71C1460.95 1352.21 1478.35 1355.25 1498.51 1356.25C1518.67 1357.25 1512.57 1361.38 1540.19 1366.39C1567.81 1371.4 1578.88 1363.83 1580.87 1360.1C1582.65 1356.79 1569.81 1351.61 1556.13 1345.76C1554.41 1345.03 1552.68 1344.27 1550.96 1343.52C1535.56 1336.75 1526.96 1322.94 1514.96 1310.13C1503.58 1298 1492.78 1259.13 1492.78 1259.13L1455.25 1251.13C1455.25 1251.13 1465.79 1286.08 1469.45 1301C1471.6 1309.78 1468.45 1319.59 1465.61 1327.06C1464.04 1331.15 1462.51 1335.31 1462.1 1339.71Z" fill="#FFB27D"/>
<path id="Vector_16" d="M1498.51 1356.25C1518.66 1357.25 1512.57 1361.38 1540.19 1366.39C1567.81 1371.4 1578.88 1363.83 1580.87 1360.1C1582.65 1356.79 1569.81 1351.61 1556.13 1345.76L1555.92 1345.99C1542.28 1349.93 1527.82 1350.1 1514.08 1346.49C1495.81 1341.49 1478.14 1330.61 1465.56 1327.08C1464.04 1331.15 1462.56 1335.31 1462.1 1339.71C1460.95 1352.21 1478.35 1355.25 1498.51 1356.25Z" fill="#C65447"/>
<path id="Vector_17" d="M1088.36 894.639C1088.36 894.639 1337.74 875.869 1384.74 905.509C1431.74 935.149 1507 1280.3 1507 1280.3C1507 1280.3 1502.35 1284.02 1492 1285.15C1482.35 1286.15 1461.09 1280.52 1461.09 1280.52C1461.09 1280.52 1352.86 1126.08 1345.24 1087.17C1337.62 1048.26 1339.48 1013.55 1322.12 1012.62C1304.76 1011.69 1088.38 1038.93 1055.65 981.269C1022.92 923.609 1049.98 866.529 1049.98 866.529L1088.36 894.639Z" fill="#AA413E"/>
<path id="Vector_18" d="M1206.62 698.718C1189.62 741.648 1148.72 811.618 1138.14 814.268C1129.22 816.498 1085.61 806.548 1050.14 794.458C1029.41 787.378 1011.49 779.558 1004.96 773.038C987.293 755.358 929.123 651.538 929.123 651.538C929.123 651.538 983.753 644.618 1009.67 659.928C1035.59 675.238 1098.04 745.928 1107.46 743.578C1116.88 741.228 1161.66 662.288 1179.33 655.218C1179.33 655.218 1206.43 649.328 1213.5 668.218C1215.32 672.918 1212.33 684.288 1206.62 698.718Z" fill="#699DEE"/>
<path id="Vector_19" d="M1366.67 1379.77C1365.52 1392.27 1382.92 1395.31 1403.07 1396.31C1423.22 1397.31 1417.14 1401.44 1444.76 1406.44C1472.38 1411.44 1483.44 1403.89 1485.44 1400.16C1487.22 1396.85 1474.38 1391.67 1460.7 1385.82C1458.97 1385.09 1457.25 1384.33 1455.53 1383.58C1440.12 1376.81 1431.53 1362.99 1419.47 1350.19C1408.1 1338.06 1397.3 1299.19 1397.3 1299.19L1359.77 1291.19C1359.77 1291.19 1370.31 1326.19 1373.97 1341.07C1376.12 1349.85 1372.97 1359.66 1370.12 1367.13C1368.61 1371.2 1367.07 1375.36 1366.67 1379.77Z" fill="#FFB27D"/>
<path id="Vector_20" d="M1403.07 1396.31C1423.23 1397.31 1417.14 1401.44 1444.76 1406.44C1472.38 1411.44 1483.44 1403.89 1485.44 1400.16C1487.22 1396.85 1474.38 1391.67 1460.7 1385.82L1460.48 1386.05C1446.84 1389.99 1432.39 1390.16 1418.65 1386.55C1400.38 1381.55 1382.71 1370.67 1370.12 1367.14C1368.61 1371.2 1367.07 1375.36 1366.67 1379.77C1365.52 1392.27 1382.92 1395.31 1403.07 1396.31Z" fill="#C65447"/>
<path id="Vector_21" d="M1206.62 698.719C1189.62 741.649 1148.72 811.619 1138.14 814.269C1129.22 816.499 1085.61 806.549 1050.14 794.459C1035.48 781.939 1026.48 771.129 1025 768.929C1026.17 769.359 1108.76 800.679 1125.14 793.659C1140.02 787.289 1182.03 715.599 1206.62 698.719Z" fill="#4A75CB"/>
<path id="Vector_22" d="M936.523 663.749C936.793 663.749 917.443 682.749 898.713 683.289C881.093 683.829 864.023 665.979 864.233 665.859C870.703 662.389 869.793 652.319 857.233 611.689L860.533 611.349L916.053 605.729C916.053 605.729 919.903 622.569 924.603 638.109C928.553 651.149 933.113 663.269 936.523 663.749Z" fill="#FFB27D"/>
<path id="Vector_23" d="M916.053 605.729C916.053 605.729 919.903 622.569 924.603 638.109C895.053 646.229 871.403 624.229 860.533 611.349L916.053 605.729Z" fill="#E2915A"/>
<path id="Vector_24" d="M1039.51 910.099C1039.51 910.099 1261.06 920.589 1306.83 952.019C1352.6 983.449 1414.4 1331.29 1414.4 1331.29C1414.4 1331.29 1409.61 1334.83 1399.2 1335.55C1389.51 1336.22 1368.49 1329.72 1368.49 1329.72C1368.49 1329.72 1266.36 1171.19 1260.26 1132.02C1254.16 1092.85 1257.36 1058.22 1240.05 1056.62C1222.74 1055.02 1005.47 1073.81 975.053 1014.92C944.633 956.029 1039.51 910.099 1039.51 910.099Z" fill="#C65447"/>
<path id="Vector_25" d="M853.383 607.299C853.383 607.299 830.613 587.729 820.593 568.109C813.443 554.109 804.223 496.899 861.803 487.959C873.386 486.104 885.237 486.873 896.483 490.209C910.923 494.649 933.543 506.829 928.853 560.639L928.743 578.359L853.383 607.299Z" fill="#B5453C"/>
<path id="Vector_26" d="M1040.74 928.999C1038.8 928.999 1036.06 928.879 1032.86 928.629C1019.91 927.629 999.273 924.869 992.053 922.719C931.053 904.499 872.523 882.029 847.583 803.109C844.389 792.886 841.877 782.464 840.063 771.909L849.573 735.669L868.113 659.169C868.113 659.169 890.923 671.359 912.113 666.659C922.963 664.249 929.113 651.589 929.113 651.589C929.113 651.589 1043.84 696.509 1082.72 789.589C1121.6 882.669 1134.95 868.529 1146.72 888.589C1158.49 908.649 1106.33 928.559 1040.74 928.999Z" fill="#699DEE"/>
<path id="Vector_27" d="M930.333 617.439C930.333 617.439 861.333 639.749 848.123 596.579C834.913 553.409 817.123 527.219 860.553 511.149C903.983 495.079 917.673 508.919 925.603 522.249C933.533 535.579 947.933 610.519 930.333 617.439Z" fill="#FFB27D"/>
<path id="Vector_28" d="M891.803 500.448C891.803 500.448 888.293 556.908 861.453 573.298C834.613 589.688 819.593 585.738 819.593 585.738C819.593 585.738 836.513 561.158 831.683 528.738C831.683 528.758 870.123 480.708 891.803 500.448Z" fill="#B5453C"/>
<path id="Vector_29" d="M888.353 505.998C888.353 505.998 905.983 512.998 912.793 522.918C919.603 532.838 928.073 554.998 934.443 552.238C934.443 552.238 938.223 513.438 916.203 498.868C892.853 483.418 888.353 505.998 888.353 505.998Z" fill="#B5453C"/>
<path id="Vector_30" d="M1032.86 928.579C1019.91 927.579 999.273 924.819 992.053 922.669C931.053 904.449 872.523 881.979 847.583 803.059C847.483 802.479 847.383 801.899 847.273 801.309L855.733 794.659C864.228 787.98 874.358 783.7 885.068 782.264C895.778 780.827 906.678 782.286 916.633 786.489C964.743 806.829 1030.93 843.689 1032.86 928.579Z" fill="#4A75CB"/>
<path id="Vector_31" d="M868.113 659.119C868.113 659.119 796.863 669.829 785.113 714.539C773.363 759.249 762.863 905.349 773.473 916.889C784.083 928.429 815.743 914.999 822.743 909.269C829.743 903.539 866.333 754.929 866.333 754.929C866.333 754.929 884.233 687.779 868.113 659.119Z" fill="#699DEE"/>
<path id="Vector_32" d="M976.603 864.438C976.603 864.438 1017.6 856.508 1022.21 858.438C1026.82 860.368 1052.62 883.558 1049.98 888.188C1047.34 892.818 1036.75 896.118 1024.85 892.188C1012.95 888.258 987.173 886.188 982.553 880.288C977.933 874.388 976.603 864.438 976.603 864.438Z" fill="#FFB27D"/>
<path id="Vector_33" d="M987.613 858.709C987.613 858.709 827.613 856.069 789.293 881.189C789.293 881.189 766.813 904.319 773.433 916.889C780.053 929.459 800.533 927.459 809.783 926.799C819.033 926.139 981.003 889.119 981.003 889.119C981.003 889.119 999.513 875.239 987.613 858.709Z" fill="#699DEE"/>
<path id="Vector_34" d="M851.453 902.999C851.453 902.999 1033.45 846.449 1079.23 900.249C1119.29 947.379 1227.92 1133.93 1233.64 1244.35C1239.19 1351.64 1134.76 1422.18 1027.33 1422.18H836.523L851.453 902.999Z" fill="#F1A34F"/>
<path id="Vector_35" d="M1125.25 1244.38C1119.53 1134 1042.06 957.999 1013.91 913.919C972.853 849.579 795.643 911.379 717.853 942.499C673.623 811.069 629.943 681.999 606.223 612.069C600.924 596.416 590.851 582.819 577.42 573.191C563.99 563.564 547.878 558.39 531.353 558.399C531.353 558.399 404.853 539.709 385.283 708.239C322.623 1247.7 372.973 1421.66 597.743 1423C625.933 1423.17 681.033 1422.67 728.123 1422.14V1422.21H918.943C1026.37 1422.21 1130.8 1351.67 1125.25 1244.38Z" fill="#F1A34F"/>
<path id="Vector_36" d="M1125.25 1244C1119.52 1133.25 1042.07 956.799 1013.91 912.579C978.913 857.639 845.353 894.379 758.403 925.769C743.203 931.259 729.403 936.589 717.863 941.229C673.623 809.449 629.943 679.999 606.233 609.859C600.956 594.175 590.892 580.543 577.459 570.881C564.026 561.218 547.9 556.013 531.353 555.999C531.353 555.999 518.833 556.119 501.623 557.689C473.893 560.219 434.023 566.529 414.913 582.209C401.913 592.839 393.043 639.509 385.313 706.279C367.043 864.009 358.383 990.599 360.843 1090.81C362.103 1142.21 366.303 1186.67 373.633 1224.81C378.753 1251.55 385.413 1275.21 393.693 1295.99C429.563 1386.16 495.693 1422.49 597.773 1423.1C609.643 1423.17 626.273 1423.1 645.083 1423.01C670.943 1422.84 700.893 1422.53 728.153 1422.23V1422.31H918.943C1026.37 1422.38 1130.81 1351.62 1125.25 1244Z" fill="#D16E24"/>
<path id="Vector_37" d="M715.743 933.889L629.463 967.769C604.293 875.159 530.093 601.819 524.233 577.069C521.093 563.769 511.383 558.959 501.603 557.729C518.813 556.159 531.343 556.039 531.343 556.039C547.866 556.039 563.973 561.216 577.402 570.843C590.831 580.469 600.907 594.061 606.213 609.709C629.573 678.569 672.243 804.639 715.743 933.889Z" fill="#F1A34F"/>
<path id="Vector_38" opacity="0.4" d="M774.363 1021.76C760.913 981.448 677.083 994.038 677.083 994.038C677.083 994.038 620.163 1064.61 603.603 1066.29C587.043 1067.97 637.753 998.288 637.753 998.288C605.673 995.768 523.903 1027.68 523.903 1027.68C523.903 1027.68 529.093 1110.01 512.523 1108.34C495.953 1106.67 512.523 1035.25 512.523 1035.25C481.523 1042.81 452.523 1072.25 452.523 1072.25C416.313 1120.13 493.933 1155.42 493.933 1155.42C493.933 1155.42 494.933 1183.97 473.223 1216.74C473.223 1216.74 445.903 1250.42 454.673 1293.98H430.673C435.283 1262.63 415.993 1238.85 415.993 1238.85C399.513 1213.99 400.303 1192.33 400.303 1192.33C400.303 1192.33 459.173 1165.56 431.703 1129.24C431.703 1129.24 409.703 1106.92 386.163 1101.24C386.163 1101.24 398.723 1155.4 386.163 1156.68C373.603 1157.96 377.523 1095.5 377.523 1095.5C377.523 1095.5 370.803 1092.87 360.893 1089.41C362.153 1140.66 366.343 1184.98 373.673 1223.05C380.953 1220.13 386.543 1216.31 389.313 1211.49C389.783 1210.65 390.243 1209.86 390.673 1209.1C390.337 1209.96 389.879 1210.76 389.313 1211.49C394.953 1214.16 403.423 1226.92 409.313 1236.7C410.153 1238.38 411.483 1240.7 413.433 1243.78C414.233 1245.21 414.883 1246.38 415.323 1247.19C422.103 1260.96 422.323 1281.01 421.623 1294.02H334.323V1297.8H339.403C341.263 1348.01 380.043 1390.66 434.453 1408.49H355.903C345.533 1408.49 337.133 1415.31 337.133 1423.73H645.423C645.424 1422.69 645.296 1421.66 645.043 1420.66C643.303 1413.72 635.743 1408.49 626.663 1408.49H548.203C602.613 1390.66 641.383 1348.01 643.203 1297.8H646.743V1294.02H484.743C488.493 1287.35 493.063 1280.83 498.423 1276.02L500.873 1274.02C503.523 1272.02 505.373 1270.53 506.633 1269.41C514.783 1263.05 526.073 1254.93 531.503 1254.15C531.31 1253.43 531.235 1252.68 531.283 1251.93C531.353 1252.65 531.433 1253.38 531.503 1254.15C533.363 1271.86 575.713 1287.34 601.763 1290.53C627.813 1293.72 619.763 1285.01 610.763 1272.12C601.763 1259.23 573.383 1253.47 566.903 1247.53C560.423 1241.59 573.813 1241.53 589.523 1247.4C605.233 1253.27 607.363 1268.74 632.523 1278.52C657.683 1288.3 695.593 1254.4 695.593 1254.4C675.533 1253.57 646.873 1235.88 647.913 1230.47C648.953 1225.06 696.553 1239.81 704.693 1240.47C712.833 1241.13 731.343 1232.97 734.203 1206.35C737.063 1179.73 683.343 1172.35 683.343 1172.35C683.343 1172.35 670.943 1179.83 656.953 1187.35C654.193 1184.44 649.703 1181.22 644.463 1177.63C649.083 1174.3 653.243 1171.45 655.823 1169.7C661.458 1170.93 667.172 1171.77 672.923 1172.21C716.393 1175.56 749.513 1109.21 749.513 1109.21C719.513 1116.77 665.683 1103.33 663.603 1094.93C661.523 1086.53 741.223 1087.36 753.603 1084.84C765.983 1082.32 787.823 1062.09 774.363 1021.76ZM508.363 1180.53C507.606 1179.58 506.996 1178.52 506.553 1177.39L508.363 1180.53ZM500.563 1269.45C490.857 1275.8 482.609 1284.14 476.363 1293.91H466.093C464.823 1277.23 464.323 1247.46 474.093 1227.6C474.673 1226.53 475.513 1225.01 476.573 1223.14C477.866 1221.08 478.96 1219.28 479.853 1217.73C480.753 1216.19 481.463 1214.88 482.013 1213.73C489.763 1200.83 500.933 1184.02 508.383 1180.5C510.467 1183.92 513.251 1186.86 516.553 1189.13C502.423 1210.52 529.633 1236.3 529.633 1236.3C529.633 1236.3 522.513 1253.68 500.583 1269.45H500.563ZM614.873 1163.68C592.623 1158.68 565.783 1159.62 555.973 1155.35C542.513 1149.45 562.173 1143.58 589.083 1145.26C607.193 1146.39 619.213 1156.64 638.373 1164.26C630.933 1163.72 622.743 1163.59 614.893 1163.68H614.873Z" fill="#C44F00"/>
<path id="Vector_39" d="M481.043 1192.9C481.043 1192.9 444.043 1149.72 478.763 1122.29C478.763 1122.29 504.133 1106.93 524.823 1108.18C524.823 1108.18 495.503 1157.33 504.993 1162.18C514.483 1167.03 533.743 1105.09 533.743 1105.09C533.743 1105.09 591.483 1099.49 610.053 1108.42C610.053 1108.42 560.693 1148.81 571.053 1151.22C581.413 1153.63 634.743 1114 634.743 1114C634.743 1114 688.473 1123.14 685.613 1155.92C682.753 1188.7 664.233 1198.83 656.093 1197.92C647.953 1197.01 600.353 1178.92 599.313 1185.54C598.273 1192.16 626.953 1214 647.013 1215C647.013 1215 609.133 1256.78 583.953 1244.72C558.773 1232.66 556.623 1213.55 540.953 1206.38C525.283 1199.21 511.853 1199.23 518.333 1206.54C524.813 1213.85 553.223 1220.96 562.193 1236.84C571.163 1252.72 579.193 1263.42 553.193 1259.5C527.193 1255.58 484.803 1236.5 482.943 1214.69L481.043 1192.9Z" fill="#82B378"/>
<path id="Vector_40" d="M659.233 1156.79C659.233 1156.79 513.233 1151.16 481.043 1192.9C481.043 1192.9 473.913 1214.25 451.983 1233.69C451.983 1233.69 420.653 1256.86 418.473 1298.26L424.163 1298.77C424.163 1298.77 433.163 1260.21 449.553 1241.98C450.193 1241.32 451.123 1240.37 452.263 1239.22C454.923 1236.76 456.773 1234.91 458.023 1233.54C466.183 1225.7 477.463 1215.7 482.903 1214.73C482.903 1214.73 468.743 1163 659.233 1156.79Z" fill="#82B378"/>
<path id="Vector_41" d="M351.623 1138.59C351.623 1138.59 410.503 1105.59 383.023 1060.87C383.023 1060.87 361.023 1033.39 337.483 1026.32C337.483 1026.32 350.053 1093.06 337.483 1094.63C324.913 1096.2 328.853 1019.25 328.853 1019.25C328.853 1019.25 266.853 989.418 242.483 991.768C242.483 991.768 280.953 1056.94 268.393 1055.37C255.833 1053.8 212.653 987.848 212.653 987.848C212.653 987.848 149.053 976.068 138.853 1013.76C128.653 1051.45 145.133 1070.29 154.553 1072.64C163.973 1074.99 224.423 1074.21 222.853 1082.06C221.283 1089.91 180.463 1102.48 157.693 1095.41C157.693 1095.41 182.813 1157.41 215.793 1154.3C248.773 1151.19 258.973 1130.74 279.383 1129.17C299.793 1127.6 314.713 1133.1 304.513 1138.59C294.313 1144.08 259.763 1140.4 243.273 1154.41C226.783 1168.42 213.433 1177.06 244.053 1183.35C274.673 1189.64 329.633 1185.7 340.623 1162.15L351.623 1138.59Z" fill="#A8D29F"/>
<path id="Vector_42" d="M367.323 1195.91C350.833 1165.29 351.623 1138.59 351.623 1138.59C332.773 1078.92 167.903 1025.53 167.903 1025.53C377.533 1110.33 340.623 1162.15 340.623 1162.15C346.273 1165.44 354.743 1181.15 360.623 1193.21C361.463 1195.21 362.793 1198.1 364.753 1201.96C365.543 1203.7 366.183 1205.13 366.623 1206.12C377.423 1233.12 371.703 1279.76 371.703 1279.76L378.243 1281.52C392.743 1234.52 367.323 1195.91 367.323 1195.91Z" fill="#82B378"/>
<path id="Vector_43" d="M445.303 1093.12C445.303 1093.12 367.683 1049.65 403.903 990.659C403.903 990.659 432.903 954.429 463.903 945.119C463.903 945.119 447.343 1033.12 463.903 1035.12C480.463 1037.12 475.283 935.759 475.283 935.759C475.283 935.759 557.043 896.439 589.123 899.539C589.123 899.539 538.413 985.439 554.973 983.369C571.533 981.299 628.453 894.369 628.453 894.369C628.453 894.369 712.283 878.839 725.743 928.519C739.203 978.199 717.463 1003.04 705.043 1006.14C692.623 1009.24 612.933 1008.21 615.043 1018.56C617.153 1028.91 670.933 1045.47 700.943 1036.15C700.943 1036.15 667.823 1117.91 624.353 1113.77C580.883 1109.63 567.433 1082.77 540.523 1080.66C513.613 1078.55 493.953 1085.83 507.403 1093.08C520.853 1100.33 566.403 1095.45 588.133 1113.93C609.863 1132.41 627.463 1143.79 587.133 1152.07C546.803 1160.35 474.333 1155.17 459.843 1124.12L445.303 1093.12Z" fill="#A8D29F"/>
<path id="Vector_44" d="M687.473 944.079C687.473 944.079 470.143 1014.46 445.303 1093.08C445.303 1093.08 446.303 1128.26 424.603 1168.63C424.603 1168.63 391.083 1219.52 410.193 1281.48L418.813 1279.17C418.813 1279.17 411.273 1217.69 425.503 1182.09C426.083 1180.78 426.933 1178.9 427.983 1176.6C430.573 1171.52 432.323 1167.78 433.423 1165.07C441.173 1149.18 452.343 1128.47 459.793 1124.12C459.793 1124.16 411.143 1055.86 687.473 944.079Z" fill="#82B378"/>
<path id="Vector_45" d="M290.633 1263.83C290.633 1304.15 306.652 1342.83 335.167 1371.34C363.682 1399.86 402.357 1415.88 442.683 1415.88C483.009 1415.88 521.684 1399.86 550.199 1371.34C578.713 1342.83 594.733 1304.15 594.733 1263.83H290.633Z" fill="#699DEE"/>
<path id="Vector_46" d="M480.103 1414.71C458.709 1417.38 436.992 1415.47 416.391 1409.11C395.791 1402.75 376.779 1392.08 360.615 1377.81C344.451 1363.54 331.504 1346 322.634 1326.35C313.763 1306.7 309.171 1285.39 309.163 1263.83H346.943C346.945 1300.88 360.477 1336.66 384.997 1364.44C409.516 1392.23 443.336 1410.1 480.103 1414.71Z" fill="#A1C7FF"/>
<path id="Vector_47" d="M578.073 1404.86H307.293C304.83 1404.86 302.391 1405.34 300.115 1406.28C297.839 1407.22 295.77 1408.61 294.028 1410.35C292.286 1412.09 290.904 1414.16 289.961 1416.43C289.018 1418.71 288.533 1421.15 288.533 1423.61H596.833C596.833 1421.15 596.348 1418.71 595.405 1416.43C594.462 1414.16 593.08 1412.09 591.338 1410.35C589.596 1408.61 587.527 1407.22 585.251 1406.28C582.975 1405.34 580.536 1404.86 578.073 1404.86Z" fill="#4A75CB"/>
<path id="Vector_48" d="M598.183 1263.83H285.633V1268.49H598.183V1263.83Z" fill="#4A75CB"/>
<path id="Vector_49" d="M2276.16 969.999V1116C2276.16 1141.65 2268.91 1162.41 2259.95 1162.41H1974.02C1965.02 1162.41 1957.81 1141.65 1957.81 1116V969.999C1957.81 944.339 1983.08 920.579 2057.2 921.409L2259.95 923.589C2268.91 923.579 2276.16 944.329 2276.16 969.999Z" fill="#F1A34F"/>
<path id="Vector_50" d="M2314.04 969.999V1116C2314.04 1141.65 2306.79 1162.41 2297.83 1162.41H2011.9C2002.9 1162.41 1995.69 1141.65 1995.69 1116V969.999C1995.69 944.339 2022.61 919.759 2063.79 920.579L2297.79 923.579C2306.79 923.579 2314.04 944.329 2314.04 969.999Z" fill="#E78B37"/>
<path id="Vector_51" d="M2243.54 794.869C2247.43 786.259 2241.54 426.869 2329.22 431.149C2416.9 435.429 2580.44 439.749 2580.44 439.749C2580.44 439.749 2654.44 446.209 2609.65 622.689C2564.86 799.169 2574.65 1078.95 2574.65 1078.95H2251.33L2243.54 794.869Z" fill="#F1A34F"/>
<path id="Vector_52" d="M2547.3 622.719C2541.9 643.799 2537.42 666.329 2533.47 689.659C2517.65 784.129 2512.78 891.779 2511.59 969.919C2510.67 1034.49 2512.25 1078.92 2512.25 1078.92H2189.03L2181.26 794.829C2185.08 786.269 2179.26 426.829 2266.9 431.159C2311.7 433.399 2376.4 435.509 2428.9 437.219C2435.48 437.349 2441.9 437.619 2448.13 437.749C2488.72 438.939 2518.23 439.749 2518.23 439.749C2518.23 439.749 2592.1 446.149 2547.3 622.719Z" fill="#E78B37"/>
<path id="Vector_53" d="M2344.28 1343.69V1154.11C2344.24 1150.21 2342.68 1146.47 2339.92 1143.71C2337.16 1140.96 2333.43 1139.39 2329.52 1139.35H2329.39C2326.83 1139.36 2324.32 1140.09 2322.14 1141.45C2319.88 1142.7 2317.99 1144.53 2316.67 1146.76C2315.35 1148.98 2314.64 1151.52 2314.63 1154.11V1344L2312.92 1344.29C2292.23 1347.57 2272.9 1356.69 2257.21 1370.58C2241.53 1384.46 2230.13 1402.54 2224.37 1422.69H2436.12C2430.2 1401.99 2418.34 1383.48 2402.02 1369.45C2385.7 1355.41 2365.63 1346.45 2344.28 1343.69Z" fill="#D16E24"/>
<path id="Vector_54" opacity="0.4" d="M2533.2 683.999C2525.3 562.769 2461.92 459.079 2448.08 437.729L2309.2 423.999C2309.2 423.999 2202.14 494.829 2228.5 767.419C2242.08 907.979 2300.05 815.919 2353.01 693.759L2342.14 958.459C2342.14 958.459 2471.4 967.279 2511.59 969.919C2512.78 891.779 2517.65 784.129 2533.47 689.659C2533.47 687.809 2533.33 685.829 2533.2 683.999Z" fill="#C44F00"/>
<path id="Vector_55" d="M2322.14 1141.45C2319.88 1142.7 2317.99 1144.53 2316.67 1146.76C2315.35 1148.98 2314.64 1151.52 2314.63 1154.11V1386.41C2314.61 1389 2315.3 1391.55 2316.62 1393.78C2317.95 1396.01 2319.86 1397.84 2322.14 1399.06C2324.37 1397.78 2326.23 1395.94 2327.52 1393.72C2328.82 1391.5 2329.51 1388.98 2329.52 1386.41V1154.11C2329.51 1151.54 2328.82 1149.01 2327.52 1146.79C2326.23 1144.57 2324.37 1142.73 2322.14 1141.45Z" fill="#F1A34F"/>
<path id="Vector_56" d="M2312.92 1344.24C2292.23 1347.52 2272.9 1356.64 2257.21 1370.53C2241.53 1384.41 2230.13 1402.49 2224.37 1422.64H2401.47C2395.73 1402.48 2384.34 1384.39 2368.65 1370.5C2352.96 1356.61 2333.62 1347.5 2312.92 1344.24Z" fill="#F1A34F"/>
<path id="Vector_57" d="M2579.22 1095.2L2571.91 1137.2C2571.91 1146.2 2571.97 1162.45 2563.01 1162.45H2059.67C2057.54 1162.45 2055.44 1162.03 2053.47 1161.22C2051.5 1160.4 2049.71 1159.21 2048.21 1157.7C2046.7 1156.2 2045.51 1154.41 2044.69 1152.44C2043.88 1150.48 2043.46 1148.37 2043.46 1146.24V1095.24C2043.46 1093.11 2043.88 1091 2044.7 1089.04C2045.51 1087.07 2046.71 1085.28 2048.21 1083.78C2049.72 1082.28 2051.5 1081.08 2053.47 1080.27C2055.44 1079.46 2057.54 1079.04 2059.67 1079.04H2563.01C2567.3 1079.04 2571.42 1080.74 2574.46 1083.77C2577.5 1086.8 2579.21 1090.91 2579.22 1095.2Z" fill="#F1A34F"/>
<path id="Vector_58" d="M1973.74 1392.1C1974.66 1396.58 1975.58 1401.19 1975.32 1405.94C1974.96 1407.24 1974.34 1408.46 1973.5 1409.52C1972.66 1410.58 1971.62 1411.47 1970.44 1412.13L1968.07 1416.61C1965.57 1417.8 1959.5 1418.72 1951.73 1419.51L1951.6 1415.82C1950.55 1415.8 1949.49 1415.84 1948.44 1415.95V1415.82C1936.58 1415.73 1924.82 1417.92 1913.78 1422.27C1913.65 1422.27 1913.52 1422.41 1913.39 1422.41L1906.14 1422.8H1872.14C1855.8 1420.43 1849.35 1413.8 1848.14 1410.55C1848.14 1409.63 1860.4 1403.55 1870.54 1400.67C1870.8 1400.6 1871.07 1400.55 1871.33 1400.53C1872.78 1400.01 1875.55 1398.95 1876.21 1398.82C1878.05 1398.16 1880.21 1397.63 1882.01 1397.11C1899.01 1392.11 1910.47 1380.77 1923.91 1368.25C1939.32 1353.89 1960.27 1289.85 1957.51 1288.67L1992.16 1293.14C1992.16 1293.14 1964.36 1348.75 1966.6 1366.01C1967.52 1373.65 1970.29 1380.11 1972.13 1386.7C1972.27 1386.96 1972.27 1387.36 1972.4 1387.62C1972.77 1388.52 1973.08 1389.45 1973.32 1390.39C1973.49 1391.05 1973.62 1391.57 1973.74 1392.1Z" fill="#EF9A60"/>
<path id="Vector_59" d="M2409.85 911.208L2260.85 905.108C2260.85 905.108 2034.17 919.748 2014.95 952.698L1929.46 1352.52C1929.46 1352.52 1934.2 1358.9 1950.25 1361.65C1958.75 1363.11 1977.25 1358.9 1977.25 1358.9C1977.25 1358.9 2087.95 1217.35 2102.18 1128.48C2114.07 1054.21 2118.77 1046.48 2159.49 1047.99C2200.21 1049.5 2325.15 1059.37 2384.49 1047.87C2443.83 1036.37 2409.85 911.208 2409.85 911.208Z" fill="#233862"/>
<path id="Vector_60" d="M1975.99 1402.25C1976.05 1403.51 1975.83 1404.77 1975.34 1405.94C1974.98 1407.24 1974.36 1408.46 1973.52 1409.52C1972.68 1410.58 1971.64 1411.47 1970.46 1412.13C1970.23 1412.35 1969.96 1412.53 1969.67 1412.66H1969.54C1969.41 1412.79 1969.27 1412.79 1969.14 1412.92C1964.8 1415.56 1959 1415.56 1951.62 1415.82H1948.46C1936.6 1415.73 1924.84 1417.92 1913.8 1422.27C1913.67 1422.27 1913.54 1422.41 1913.41 1422.41C1913.01 1422.54 1912.75 1422.67 1912.35 1422.8H1854.74C1846.83 1419.64 1845.25 1414.63 1844.46 1412.8C1843.8 1411.35 1845.65 1409.8 1849.21 1408.05C1849.54 1407.92 1849.85 1407.75 1850.13 1407.53C1855.13 1405.29 1862.65 1402.92 1870.68 1400.28C1870.82 1400.41 1871.08 1400.41 1871.34 1400.54C1876.75 1402.39 1895.59 1408.32 1917.72 1404.1C1936.17 1400.54 1954.49 1391.85 1968.59 1387.63C1969.77 1387.37 1970.96 1386.97 1972.14 1386.71C1972.41 1386.58 1972.67 1386.58 1972.93 1386.45C1973.17 1387 1973.35 1387.57 1973.46 1388.16C1974.98 1392.71 1975.83 1397.46 1975.99 1402.25Z" fill="#365DA4"/>
<path id="Vector_61" d="M1971.25 1410.68L1970.46 1412.13L1968.09 1416.61L1964.8 1422.8H1948.59V1419.51L1948.46 1415.95V1414.37L1970.33 1410.81L1971.25 1410.68Z" fill="#365DA4"/>
<path id="Vector_62" d="M2024.26 1392.1C2025.19 1396.58 2026.11 1401.19 2025.85 1405.94C2025.49 1407.24 2024.87 1408.46 2024.03 1409.52C2023.19 1410.58 2022.15 1411.47 2020.97 1412.13L2018.6 1416.61C2016.1 1417.8 2010.03 1418.72 2002.26 1419.51L2002.13 1415.82C2001.08 1415.8 2000.02 1415.84 1998.97 1415.95V1415.82C1987.11 1415.73 1975.35 1417.92 1964.31 1422.27C1964.18 1422.27 1964.05 1422.41 1963.92 1422.41L1956.67 1422.8H1922.67C1906.33 1420.43 1899.88 1413.8 1898.67 1410.55C1898.67 1409.63 1910.93 1403.55 1921.07 1400.67C1921.33 1400.6 1921.6 1400.55 1921.86 1400.53C1923.31 1400.01 1926.08 1398.95 1926.74 1398.82C1928.58 1398.16 1930.74 1397.63 1932.54 1397.11C1949.54 1392.11 1961 1380.77 1974.44 1368.25C1989.85 1353.89 2010.8 1289.85 2008.04 1288.67L2042.69 1293.14C2042.69 1293.14 2014.89 1348.75 2017.13 1366.01C2018.05 1373.65 2020.82 1380.11 2022.66 1386.7C2022.8 1386.96 2022.8 1387.36 2022.93 1387.62C2023.3 1388.52 2023.61 1389.45 2023.85 1390.39C2024 1391.05 2024.13 1391.57 2024.26 1392.1Z" fill="#FFB27D"/>
<path id="Vector_63" d="M2319.44 541.398L2307.84 587.398L2246.92 828.078C2244.6 831.708 2225.2 839.378 2203.75 846.578C2178.2 855.118 2149.66 863.168 2144.27 862.698C2134.39 861.898 2128.92 841.258 2131.74 835.438C2133.56 831.598 2166.13 814.318 2191.6 798.818C2205.81 790.178 2217.8 782.108 2221.12 777.308C2227.12 768.398 2241.99 686.448 2254.12 626.478C2260.31 595.718 2265.83 570.708 2269.03 564.158C2277.14 547.048 2308.73 542.428 2317.28 541.548C2318 541.46 2318.72 541.41 2319.44 541.398Z" fill="#466AA5"/>
<path id="Vector_64" d="M2449.28 911.339L2300.28 905.249C2300.28 905.249 2073.6 919.889 2054.37 952.839L1975.37 1360.55C1975.37 1360.55 1989.15 1365.26 1997.81 1365.9C2011.6 1366.9 2021.07 1362.4 2021.07 1362.4C2021.07 1362.4 2127.34 1217.49 2141.57 1128.62C2153.46 1054.35 2158.17 1046.62 2198.89 1048.13C2239.61 1049.64 2364.55 1059.51 2423.89 1048.01C2483.23 1036.51 2449.28 911.339 2449.28 911.339Z" fill="#2B478B"/>
<path id="Vector_65" d="M2026.51 1402.25C2026.57 1403.51 2026.35 1404.77 2025.85 1405.94C2025.49 1407.24 2024.87 1408.46 2024.03 1409.52C2023.19 1410.58 2022.15 1411.47 2020.97 1412.13C2020.74 1412.35 2020.47 1412.53 2020.18 1412.66H2020.05C2019.92 1412.79 2019.78 1412.79 2019.65 1412.92C2015.3 1415.56 2009.51 1415.56 2002.13 1415.82H1998.97C1987.11 1415.73 1975.35 1417.92 1964.31 1422.27C1964.18 1422.27 1964.05 1422.41 1963.92 1422.41C1963.52 1422.54 1963.26 1422.67 1962.86 1422.8H1905.28C1897.37 1419.64 1895.79 1414.63 1895 1412.8C1894.34 1411.35 1896.19 1409.8 1899.75 1408.05C1900.09 1407.93 1900.4 1407.75 1900.67 1407.53C1905.67 1405.29 1913.19 1402.92 1921.22 1400.28C1921.36 1400.41 1921.62 1400.41 1921.88 1400.54C1927.29 1402.39 1946.13 1408.32 1968.26 1404.1C1986.71 1400.54 2005.03 1391.85 2019.13 1387.63C2020.31 1387.37 2021.5 1386.97 2022.68 1386.71C2022.95 1386.58 2023.21 1386.58 2023.47 1386.45C2023.71 1387 2023.89 1387.57 2024 1388.16C2025.51 1392.71 2026.35 1397.46 2026.51 1402.25Z" fill="#466AA5"/>
<path id="Vector_66" d="M2021.76 1410.68L2020.97 1412.13L2018.6 1416.61L2015.31 1422.8H1999.1V1419.51L1998.97 1415.95V1414.37L2020.84 1410.81L2021.76 1410.68Z" fill="#466AA5"/>
<path id="Vector_67" d="M2393.99 476.699C2465.47 471.259 2479.45 324.559 2394.41 342.429C2394.41 342.429 2382.49 334.639 2376.6 334.559C2376.6 334.559 2381.15 336.219 2383.14 339.079C2373.95 337.019 2359.7 333.689 2348.48 340.079C2233.49 405.289 2366.29 478.799 2393.99 476.699Z" fill="#163560"/>
<path id="Vector_68" d="M2313.33 554.799C2313.05 554.879 2336.84 572.579 2357.26 570.409C2376.45 568.409 2392.33 546.479 2392.08 546.409C2384.55 543.599 2384.08 532.539 2391.66 486.589L2388.02 486.719L2326.95 488.839C2326.95 488.839 2325.27 507.679 2322.47 525.229C2320.12 539.999 2316.96 553.779 2313.33 554.799Z" fill="#FFB27D"/>
<path id="Vector_69" d="M2307.84 587.439L2246.92 828.119C2244.6 831.749 2225.2 839.419 2203.75 846.619C2201.77 841.672 2200.05 836.625 2198.59 831.499C2195.43 820.813 2193.09 809.901 2191.59 798.859C2205.8 790.219 2217.79 782.149 2221.11 777.349C2227.11 768.439 2241.98 686.489 2254.11 626.519C2281.42 599.709 2307.18 586.519 2307.18 586.519L2307.84 587.439Z" fill="#2B478B"/>
<path id="Vector_70" d="M2326.95 488.818C2326.95 488.818 2325.27 507.658 2322.47 525.208C2355.74 529.648 2378.14 502.278 2388.02 486.698L2326.95 488.818Z" fill="#EF9A60"/>
<path id="Vector_71" d="M2395.18 481.239C2395.18 481.239 2416.98 456.639 2424.95 433.869C2430.63 417.609 2432.17 354.179 2368.37 353.009C2355.53 352.71 2342.79 355.301 2331.08 360.589C2316.08 367.589 2293.32 384.109 2306.39 441.799L2309.1 461.009L2395.18 481.239Z" fill="#163560"/>
<path id="Vector_72" d="M2313.19 503.639C2313.19 503.639 2391.33 517.639 2399.3 468.839C2407.27 420.039 2422.74 388.999 2373.16 377.999C2323.58 366.999 2310.85 383.999 2304.23 399.669C2297.61 415.339 2293.07 498.739 2313.19 503.639Z" fill="#FFB27D"/>
<path id="Vector_73" d="M2337.67 370.998C2337.67 370.998 2349.84 431.728 2381.39 445.528C2412.94 459.328 2428.65 452.828 2428.65 452.828C2428.65 452.828 2406.65 428.678 2407.09 392.828C2407.09 392.818 2358.27 346.378 2337.67 370.998Z" fill="#163560"/>
<path id="Vector_74" d="M2342.24 376.519C2342.24 376.519 2324.14 386.699 2318.24 398.519C2312.34 410.339 2306.42 435.609 2299.1 433.519C2299.1 433.519 2289.25 391.979 2310.98 372.909C2334.01 352.679 2342.24 376.519 2342.24 376.519Z" fill="#163560"/>
<path id="Vector_75" d="M2455.43 985.398C2449.22 996.538 2435.72 997.398 2418.76 992.538C2410.59 990.278 2401.71 986.538 2392.4 982.258C2391.53 981.743 2390.62 981.282 2389.68 980.878C2362.22 967.478 2331.59 947.298 2307.68 931.938C2257.5 899.778 2254.17 917.788 2239.3 900.028C2239.3 900.028 2254.59 883.958 2234.98 696.158C2229.41 642.398 2319.47 541.398 2319.47 541.398C2319.47 541.398 2320.07 574.738 2392.08 546.398C2394.63 545.478 2414.32 587.908 2431.5 639.158C2434.31 647.352 2436.98 655.655 2439.5 664.068C2451.5 703.788 2460.37 745.278 2457.96 774.128C2457.57 780.338 2456.35 786.469 2454.34 792.358L2453.7 793.858C2428.93 853.218 2473.18 953.298 2455.43 985.398Z" fill="#466AA5"/>
<path id="Vector_76" d="M2207.68 750.749L2074.96 741.259L2131.8 895.999L2256.08 908.889L2207.68 750.749Z" fill="#B64C41"/>
<path id="Vector_77" d="M2206.5 752.418L2073.79 742.928L2130.62 897.668L2254.9 910.558L2206.5 752.418Z" fill="#D6716B"/>
<path id="Vector_78" d="M2194.56 749.809C2194.56 749.809 2197.75 729.809 2186.45 729.349C2175.15 728.889 2168.54 748.529 2168.54 748.529L2194.56 749.809Z" fill="#B2CBFD"/>
<path id="Vector_79" d="M2173.32 767.998C2176.47 782.268 2194.73 805.608 2193.63 817.418L2108.81 816.318C2108.81 816.318 2109.36 810.828 2091.24 771.848C2083.79 755.848 2092.61 726.848 2100.24 726.198L2186.41 729.358C2186.41 729.358 2167.17 740.158 2173.32 767.998Z" fill="#D2E9FF"/>
<path id="Vector_80" d="M2074.96 741.259L2073.79 742.929L2076.71 743.119L2076.45 742.079L2074.96 741.259Z" fill="#B64C41"/>
<path id="Vector_81" d="M2254.9 910.558L2256.08 908.888L2253.84 907.148L2254.9 910.558Z" fill="#B64C41"/>
<path id="Vector_82" d="M2455.43 985.399C2449.22 996.539 2435.72 997.398 2418.76 992.539C2410.59 990.279 2401.71 986.539 2392.4 982.259C2359.4 960.889 2324.11 926.729 2304.29 871.989C2259.74 748.999 2431.02 659.999 2431.02 659.999L2439.45 663.999C2451.45 703.719 2460.32 745.209 2457.91 774.059C2457.52 780.269 2456.3 786.399 2454.29 792.289L2453.65 793.789C2428.93 853.219 2473.18 953.299 2455.43 985.399Z" fill="#2B478B"/>
<path id="Vector_83" d="M2309.77 785.896L2304.4 782.08L2252.9 854.596L2258.27 858.411L2309.77 785.896Z" fill="#D16E24"/>
<path id="Vector_84" d="M2252.99 854.539L2252.58 860.999L2258.37 858.359L2252.99 854.539Z" fill="#F1A34F"/>
<path id="Vector_85" d="M2321.67 823.279C2321.67 823.279 2298.44 813.628 2286.67 816.348C2274.9 819.068 2250.91 826.938 2251.96 833.408C2253.01 839.878 2278.69 847.408 2290.74 843.058C2302.79 838.708 2309.74 847.818 2323.96 845.498C2338.18 843.178 2321.67 823.279 2321.67 823.279Z" fill="#FFB27D"/>
<path id="Vector_86" d="M2392.09 546.389C2392.09 546.389 2465.23 558.809 2474.34 578.089C2483.45 597.369 2477.4 799.389 2471.71 820.719C2466.02 842.049 2347.88 852.089 2312.49 850.799C2312.49 850.799 2306.93 826.799 2313.55 813.429C2320.17 800.059 2407.61 785.569 2414.79 775.609C2421.97 765.649 2400.43 642.859 2403.22 618.839C2406.01 594.819 2392.09 546.389 2392.09 546.389Z" fill="#466AA5"/>
<path id="Vector_87" d="M2105.46 830.998C2105.46 830.998 2129.62 828.658 2126.35 838.558C2123.08 848.458 2113.96 853.238 2113.96 853.238C2113.96 853.238 2095.28 839.778 2105.46 830.998Z" fill="#FFB27D"/>
<path id="Vector_88" d="M2541.34 969.998V1116C2541.34 1141.65 2534.09 1162.41 2525.13 1162.41H2239.2C2230.2 1162.41 2222.99 1141.65 2222.99 1116V969.998C2222.99 944.338 2245.79 918.939 2323.99 923.589H2525.1C2534.09 923.579 2541.34 944.328 2541.34 969.998Z" fill="#F1A34F"/>
<path id="Vector_89" d="M2579.22 969.999V1116C2579.22 1141.65 2571.97 1162.41 2563.01 1162.41H2277.08C2268.08 1162.41 2260.87 1141.65 2260.87 1116V969.999C2260.87 944.339 2285.32 921.409 2342.97 923.589L2547.2 922.229C2579.32 922.219 2579.22 944.329 2579.22 969.999Z" fill="#DF812F"/>
<path id="Vector_90" d="M2879.99 1034.56H2508.23C2503.97 1034.57 2499.89 1036.27 2496.88 1039.28C2493.87 1042.3 2492.17 1046.38 2492.16 1050.64V1056.4C2492.17 1060.66 2493.87 1064.74 2496.88 1067.75C2499.89 1070.77 2503.97 1072.47 2508.23 1072.48H2679.74L2689.36 1366.78C2641.94 1368.27 2602.77 1391.78 2592.46 1422.94H2795.87C2785.63 1392.02 2747 1368.66 2700.09 1366.83L2708.61 1072.48H2880.04C2884.3 1072.47 2888.39 1070.77 2891.4 1067.75C2894.41 1064.74 2896.11 1060.66 2896.12 1056.4V1050.64C2896.11 1046.37 2894.4 1042.28 2891.38 1039.27C2888.36 1036.25 2884.26 1034.56 2879.99 1034.56Z" fill="#4A75CB"/>
<path id="Vector_91" d="M2670.74 1003.64C2668.37 1002.18 2663.74 1002.75 2660.43 1003.45V998.608C2660.43 997.555 2660.36 996.503 2660.22 995.458H2610.15C2610.02 996.503 2609.95 997.555 2609.95 998.608V1008.44C2609.95 1013.57 2611.51 1018.57 2614.42 1022.79C2617.34 1027.01 2621.47 1030.24 2626.27 1032.05C2631.07 1033.86 2636.3 1034.16 2641.28 1032.92C2646.25 1031.67 2650.73 1028.94 2654.11 1025.09C2654.11 1025.09 2666.02 1022.16 2669.76 1017.72C2673.5 1013.28 2674.74 1006.09 2670.74 1003.64ZM2668.09 1012.72C2666.83 1015.99 2661.15 1017.72 2658.35 1018.43C2659.49 1015.79 2660.17 1012.98 2660.35 1010.12C2662.08 1007.76 2664.81 1006.37 2666.81 1006.73C2668.62 1007.06 2669.74 1008.59 2668.1 1012.72H2668.09Z" fill="#699DEE"/>
<path id="Vector_92" d="M2614.06 998.608V1008.44C2614.08 1015.13 2616.75 1021.53 2621.47 1026.26C2626.2 1030.99 2632.61 1033.66 2639.29 1033.68C2640.43 1033.68 2641.56 1033.6 2642.68 1033.44C2636.64 1032.6 2631.1 1029.61 2627.09 1025.02C2623.08 1020.43 2620.86 1014.54 2620.84 1008.44V998.608C2620.84 997.552 2620.91 996.496 2621.05 995.448H2614.26C2614.13 996.497 2614.06 997.552 2614.06 998.608Z" fill="#AFCDFB"/>
<path id="Vector_93" d="M2645.48 1031.48H2624.88V1034.56H2645.48V1031.48Z" fill="#699DEE"/>
<path id="Vector_94" d="M2803.34 1003.64C2800.97 1002.18 2796.34 1002.75 2793.03 1003.45V998.608C2793.03 997.555 2792.96 996.503 2792.82 995.458H2742.74C2742.61 996.503 2742.54 997.555 2742.54 998.608V1008.44C2742.54 1013.57 2744.1 1018.57 2747.01 1022.79C2749.93 1027.01 2754.06 1030.24 2758.86 1032.05C2763.66 1033.86 2768.89 1034.16 2773.87 1032.92C2778.84 1031.67 2783.32 1028.94 2786.7 1025.09C2786.7 1025.09 2798.61 1022.16 2802.35 1017.72C2806.09 1013.28 2807.31 1006.09 2803.34 1003.64ZM2800.69 1012.72C2799.43 1015.99 2793.75 1017.72 2790.95 1018.43C2792.09 1015.79 2792.77 1012.98 2792.95 1010.12C2794.68 1007.76 2797.41 1006.37 2799.41 1006.73C2801.21 1007.06 2802.29 1008.59 2800.74 1012.72H2800.69Z" fill="#699DEE"/>
<path id="Vector_95" d="M2746.65 999.608V1009.44C2746.67 1016.13 2749.34 1022.53 2754.06 1027.26C2758.79 1031.99 2765.2 1034.66 2771.88 1034.68C2773.02 1034.68 2774.15 1034.6 2775.27 1034.44C2769.23 1033.6 2763.69 1030.61 2759.68 1026.02C2755.67 1021.43 2753.45 1015.54 2753.43 1009.44V999.608C2753.43 998.552 2753.5 997.496 2753.64 996.448H2746.85C2746.72 997.497 2746.65 998.552 2746.65 999.608Z" fill="#AFCDFB"/>
<path id="Vector_96" d="M2778.07 1031.48H2757.47V1034.56H2778.07V1031.48Z" fill="#699DEE"/>
</g>
</g>
</g>
<defs>
<filter id="filter0_d_0_1" x="16" y="-21" width="2990.07" height="1455.06" filterUnits="userSpaceOnUse" color-interpolation-filters="sRGB">
<feFlood flood-opacity="0" result="BackgroundImageFix"/>
<feColorMatrix in="SourceAlpha" type="matrix" values="0 0 0 0 0 0 0 0 0 0 0 0 0 0 0 0 0 0 127 0" result="hardAlpha"/>
<feOffset dy="4"/>
<feGaussianBlur stdDeviation="2"/>
<feComposite in2="hardAlpha" operator="out"/>
<feColorMatrix type="matrix" values="0 0 0 0 0 0 0 0 0 0 0 0 0 0 0 0 0 0 0.25 0"/>
<feBlend mode="normal" in2="BackgroundImageFix" result="effect1_dropShadow_0_1"/>
<feBlend mode="normal" in="SourceGraphic" in2="effect1_dropShadow_0_1" result="shape"/>
</filter>
<clipPath id="clip0_0_1">
<rect width="3022.33" height="1450.46" fill="white"/>
</clipPath>
</defs>
</svg>
